<svg width="313" height="217" viewBox="0 0 313 217" fill="none" xmlns="http://www.w3.org/2000/svg">
<path d="M1.69107 145.175C1.76424 145.175 1.82696 135.814 1.82696 124.274C1.82696 112.728 1.76424 103.372 1.69107 103.372C1.6179 103.372 1.55518 112.728 1.55518 124.274C1.55518 135.819 1.6179 145.175 1.69107 145.175Z" fill="#F6F6F6"/>
<path d="M25.8799 103.592H19.6968V112.55H25.8799V103.592Z" fill="#F6F6F6"/>
<path d="M40.7182 214.888C40.6189 214.888 40.5405 199.438 40.5405 180.387C40.5405 161.325 40.6189 145.88 40.7182 145.88C40.8175 145.88 40.8959 161.325 40.8959 180.387C40.8959 199.438 40.8175 214.888 40.7182 214.888Z" fill="#E0E0E0"/>
<path d="M55.6143 199.6H48.7256V207.388H55.6143V199.6Z" fill="#FAFAFA"/>
<path d="M10.9893 200.378H0.781738V215.17H10.9893V200.378Z" fill="#F6F6F6"/>
<path d="M133.443 23.9694C133.443 24.0426 132.858 24.1053 132.137 24.1053C131.415 24.1053 130.83 24.0426 130.83 23.9694C130.83 23.8962 131.415 23.8335 132.137 23.8335C132.858 23.8335 133.443 23.891 133.443 23.9694Z" fill="#EBEBEB"/>
<path d="M138.67 23.9694C138.67 24.0426 138.085 24.1053 137.364 24.1053C136.643 24.1053 136.057 24.0426 136.057 23.9694C136.057 23.8962 136.643 23.8335 137.364 23.8335C138.085 23.8335 138.67 23.891 138.67 23.9694Z" fill="#EBEBEB"/>
<path d="M143.897 23.9694C143.897 24.0426 143.312 24.1053 142.59 24.1053C141.869 24.1053 141.284 24.0426 141.284 23.9694C141.284 23.8962 141.869 23.8335 142.59 23.8335C143.312 23.8335 143.897 23.891 143.897 23.9694Z" fill="#EBEBEB"/>
<path d="M149.123 23.9694C149.123 24.0426 148.538 24.1053 147.816 24.1053C147.095 24.1053 146.51 24.0426 146.51 23.9694C146.51 23.8962 147.095 23.8335 147.816 23.8335C148.538 23.8335 149.123 23.891 149.123 23.9694Z" fill="#EBEBEB"/>
<path d="M154.35 23.9694C154.35 24.0426 153.765 24.1053 153.043 24.1053C152.322 24.1053 151.737 24.0426 151.737 23.9694C151.737 23.8962 152.322 23.8335 153.043 23.8335C153.765 23.8335 154.35 23.891 154.35 23.9694Z" fill="#EBEBEB"/>
<path d="M159.577 23.9694C159.577 24.0426 158.991 24.1053 158.27 24.1053C157.549 24.1053 156.963 24.0426 156.963 23.9694C156.963 23.8962 157.549 23.8335 158.27 23.8335C158.991 23.8335 159.577 23.891 159.577 23.9694Z" fill="#EBEBEB"/>
<path d="M164.804 23.9694C164.804 24.0426 164.218 24.1053 163.497 24.1053C162.776 24.1053 162.19 24.0426 162.19 23.9694C162.19 23.8962 162.776 23.8335 163.497 23.8335C164.218 23.8335 164.804 23.891 164.804 23.9694Z" fill="#EBEBEB"/>
<path d="M170.03 23.9694C170.03 24.0426 169.445 24.1053 168.724 24.1053C168.002 24.1053 167.417 24.0426 167.417 23.9694C167.417 23.8962 168.002 23.8335 168.724 23.8335C169.445 23.8335 170.03 23.891 170.03 23.9694Z" fill="#EBEBEB"/>
<path d="M175.256 23.9694C175.256 24.0426 174.671 24.1053 173.95 24.1053C173.228 24.1053 172.643 24.0426 172.643 23.9694C172.643 23.8962 173.228 23.8335 173.95 23.8335C174.671 23.8335 175.256 23.891 175.256 23.9694Z" fill="#EBEBEB"/>
<path d="M180.483 23.9694C180.483 24.0426 179.898 24.1053 179.177 24.1053C178.455 24.1053 177.87 24.0426 177.87 23.9694C177.87 23.8962 178.455 23.8335 179.177 23.8335C179.898 23.8335 180.483 23.891 180.483 23.9694Z" fill="#EBEBEB"/>
<path d="M185.71 23.9694C185.71 24.0426 185.125 24.1053 184.403 24.1053C183.682 24.1053 183.097 24.0426 183.097 23.9694C183.097 23.8962 183.682 23.8335 184.403 23.8335C185.125 23.8335 185.71 23.891 185.71 23.9694Z" fill="#EBEBEB"/>
<path d="M190.936 23.9694C190.936 24.0426 190.351 24.1053 189.629 24.1053C188.908 24.1053 188.323 24.0426 188.323 23.9694C188.323 23.8962 188.908 23.8335 189.629 23.8335C190.351 23.8335 190.936 23.891 190.936 23.9694Z" fill="#EBEBEB"/>
<path d="M196.163 23.9694C196.163 24.0426 195.578 24.1053 194.856 24.1053C194.135 24.1053 193.55 24.0426 193.55 23.9694C193.55 23.8962 194.135 23.8335 194.856 23.8335C195.578 23.8335 196.163 23.891 196.163 23.9694Z" fill="#EBEBEB"/>
<path d="M201.39 23.9694C201.39 24.0426 200.804 24.1053 200.083 24.1053C199.362 24.1053 198.776 24.0426 198.776 23.9694C198.776 23.8962 199.362 23.8335 200.083 23.8335C200.804 23.8335 201.39 23.891 201.39 23.9694Z" fill="#EBEBEB"/>
<path d="M206.616 23.9694C206.616 24.0426 206.031 24.1053 205.31 24.1053C204.588 24.1053 204.003 24.0426 204.003 23.9694C204.003 23.8962 204.588 23.8335 205.31 23.8335C206.031 23.8335 206.616 23.891 206.616 23.9694Z" fill="#EBEBEB"/>
<path d="M211.843 23.9694C211.843 24.0426 211.258 24.1053 210.537 24.1053C209.815 24.1053 209.23 24.0426 209.23 23.9694C209.23 23.8962 209.815 23.8335 210.537 23.8335C211.258 23.8335 211.843 23.891 211.843 23.9694Z" fill="#EBEBEB"/>
<path d="M217.07 23.9694C217.07 24.0426 216.484 24.1053 215.763 24.1053C215.042 24.1053 214.457 24.0426 214.457 23.9694C214.457 23.8962 215.042 23.8335 215.763 23.8335C216.484 23.8335 217.07 23.891 217.07 23.9694Z" fill="#EBEBEB"/>
<path d="M222.296 23.9694C222.296 24.0426 221.711 24.1053 220.99 24.1053C220.268 24.1053 219.683 24.0426 219.683 23.9694C219.683 23.8962 220.268 23.8335 220.99 23.8335C221.711 23.8335 222.296 23.891 222.296 23.9694Z" fill="#EBEBEB"/>
<path d="M227.523 23.9694C227.523 24.0426 226.938 24.1053 226.216 24.1053C225.495 24.1053 224.91 24.0426 224.91 23.9694C224.91 23.8962 225.495 23.8335 226.216 23.8335C226.938 23.8335 227.523 23.891 227.523 23.9694Z" fill="#EBEBEB"/>
<path d="M232.75 23.9694C232.75 24.0426 232.164 24.1053 231.443 24.1053C230.722 24.1053 230.136 24.0426 230.136 23.9694C230.136 23.8962 230.722 23.8335 231.443 23.8335C232.164 23.8335 232.75 23.891 232.75 23.9694Z" fill="#EBEBEB"/>
<path d="M237.976 23.9694C237.976 24.0426 237.391 24.1053 236.669 24.1053C235.948 24.1053 235.363 24.0426 235.363 23.9694C235.363 23.8962 235.948 23.8335 236.669 23.8335C237.391 23.8335 237.976 23.891 237.976 23.9694Z" fill="#EBEBEB"/>
<path d="M243.203 23.9694C243.203 24.0426 242.617 24.1053 241.896 24.1053C241.175 24.1053 240.589 24.0426 240.589 23.9694C240.589 23.8962 241.175 23.8335 241.896 23.8335C242.617 23.8335 243.203 23.891 243.203 23.9694Z" fill="#EBEBEB"/>
<path d="M248.429 23.9694C248.429 24.0426 247.844 24.1053 247.123 24.1053C246.401 24.1053 245.816 24.0426 245.816 23.9694C245.816 23.8962 246.401 23.8335 247.123 23.8335C247.844 23.8335 248.429 23.891 248.429 23.9694Z" fill="#EBEBEB"/>
<path d="M249.768 27.8528C249.695 27.8528 249.632 27.2674 249.632 26.5462C249.632 25.8249 249.695 25.2395 249.768 25.2395C249.841 25.2395 249.904 25.8249 249.904 26.5462C249.904 27.2674 249.846 27.8528 249.768 27.8528Z" fill="#EBEBEB"/>
<path d="M249.768 33.0794C249.695 33.0794 249.632 32.494 249.632 31.7727C249.632 31.0514 249.695 30.4661 249.768 30.4661C249.841 30.4661 249.904 31.0514 249.904 31.7727C249.904 32.494 249.846 33.0794 249.768 33.0794Z" fill="#EBEBEB"/>
<path d="M249.768 38.3059C249.695 38.3059 249.632 37.7206 249.632 36.9993C249.632 36.278 249.695 35.6926 249.768 35.6926C249.841 35.6926 249.904 36.278 249.904 36.9993C249.904 37.7206 249.846 38.3059 249.768 38.3059Z" fill="#EBEBEB"/>
<path d="M249.768 43.5325C249.695 43.5325 249.632 42.9471 249.632 42.2258C249.632 41.5046 249.695 40.9192 249.768 40.9192C249.841 40.9192 249.904 41.5046 249.904 42.2258C249.904 42.9471 249.846 43.5325 249.768 43.5325Z" fill="#EBEBEB"/>
<path d="M249.768 48.7593C249.695 48.7593 249.632 48.1739 249.632 47.4527C249.632 46.7314 249.695 46.146 249.768 46.146C249.841 46.146 249.904 46.7314 249.904 47.4527C249.904 48.1739 249.846 48.7593 249.768 48.7593Z" fill="#EBEBEB"/>
<path d="M250.787 52.9667C250.787 53.0294 250.353 53.0869 249.768 53.0973L249.637 53.1026V52.9667C249.637 52.8674 249.637 52.7733 249.632 52.6792C249.632 51.9579 249.695 51.3726 249.768 51.3726C249.841 51.3726 249.904 51.9579 249.904 52.6792C249.904 52.7733 249.904 52.8674 249.898 52.9667L249.768 52.836C250.353 52.8517 250.787 52.904 250.787 52.9667Z" fill="#EBEBEB"/>
<path d="M256.013 52.9667C256.013 53.0399 255.428 53.1026 254.707 53.1026C253.985 53.1026 253.4 53.0399 253.4 52.9667C253.4 52.8935 253.985 52.8308 254.707 52.8308C255.428 52.8308 256.013 52.8935 256.013 52.9667Z" fill="#EBEBEB"/>
<path d="M261.24 52.9667C261.24 53.0399 260.655 53.1026 259.934 53.1026C259.212 53.1026 258.627 53.0399 258.627 52.9667C258.627 52.8935 259.212 52.8308 259.934 52.8308C260.655 52.8308 261.24 52.8935 261.24 52.9667Z" fill="#EBEBEB"/>
<path d="M266.466 52.9667C266.466 53.0399 265.881 53.1026 265.16 53.1026C264.438 53.1026 263.853 53.0399 263.853 52.9667C263.853 52.8935 264.438 52.8308 265.16 52.8308C265.881 52.8308 266.466 52.8935 266.466 52.9667Z" fill="#EBEBEB"/>
<path d="M271.693 52.9667C271.693 53.0399 271.108 53.1026 270.386 53.1026C269.665 53.1026 269.08 53.0399 269.08 52.9667C269.08 52.8935 269.665 52.8308 270.386 52.8308C271.108 52.8308 271.693 52.8935 271.693 52.9667Z" fill="#EBEBEB"/>
<path d="M276.92 52.9667C276.92 53.0399 276.335 53.1026 275.613 53.1026C274.892 53.1026 274.307 53.0399 274.307 52.9667C274.307 52.8935 274.892 52.8308 275.613 52.8308C276.335 52.8308 276.92 52.8935 276.92 52.9667Z" fill="#EBEBEB"/>
<path d="M282.147 52.9667C282.147 53.0399 281.561 53.1026 280.84 53.1026C280.119 53.1026 279.533 53.0399 279.533 52.9667C279.533 52.8935 280.119 52.8308 280.84 52.8308C281.561 52.8308 282.147 52.8935 282.147 52.9667Z" fill="#EBEBEB"/>
<path d="M287.373 52.9667C287.373 53.0399 286.787 53.1026 286.066 53.1026C285.345 53.1026 284.759 53.0399 284.759 52.9667C284.759 52.8935 285.345 52.8308 286.066 52.8308C286.787 52.8308 287.373 52.8935 287.373 52.9667Z" fill="#EBEBEB"/>
<path d="M292.599 52.9667C292.599 53.0399 292.014 53.1026 291.292 53.1026C290.571 53.1026 289.986 53.0399 289.986 52.9667C289.986 52.8935 290.571 52.8308 291.292 52.8308C292.014 52.8308 292.599 52.8935 292.599 52.9667Z" fill="#EBEBEB"/>
<path d="M294.633 56.1656C294.56 56.1656 294.497 55.5802 294.497 54.8589C294.497 54.1376 294.56 53.5522 294.633 53.5522C294.706 53.5522 294.769 54.1376 294.769 54.8589C294.769 55.5802 294.706 56.1656 294.633 56.1656Z" fill="#EBEBEB"/>
<path d="M294.633 61.3921C294.56 61.3921 294.497 60.8067 294.497 60.0855C294.497 59.3642 294.56 58.7788 294.633 58.7788C294.706 58.7788 294.769 59.3642 294.769 60.0855C294.769 60.8067 294.706 61.3921 294.633 61.3921Z" fill="#EBEBEB"/>
<path d="M294.633 66.6187C294.56 66.6187 294.497 66.0333 294.497 65.312C294.497 64.5908 294.56 64.0054 294.633 64.0054C294.706 64.0054 294.769 64.5908 294.769 65.312C294.769 66.0333 294.706 66.6187 294.633 66.6187Z" fill="#EBEBEB"/>
<path d="M294.633 71.8452C294.56 71.8452 294.497 71.2599 294.497 70.5386C294.497 69.8173 294.56 69.2319 294.633 69.2319C294.706 69.2319 294.769 69.8173 294.769 70.5386C294.769 71.2599 294.706 71.8452 294.633 71.8452Z" fill="#EBEBEB"/>
<path d="M294.633 77.0721C294.56 77.0721 294.497 76.4867 294.497 75.7654C294.497 75.0441 294.56 74.4587 294.633 74.4587C294.706 74.4587 294.769 75.0441 294.769 75.7654C294.769 76.4867 294.706 77.0721 294.633 77.0721Z" fill="#EBEBEB"/>
<path d="M294.633 82.2986C294.56 82.2986 294.497 81.7132 294.497 80.992C294.497 80.2707 294.56 79.6853 294.633 79.6853C294.706 79.6853 294.769 80.2707 294.769 80.992C294.769 81.7132 294.706 82.2986 294.633 82.2986Z" fill="#EBEBEB"/>
<path d="M294.633 87.5252C294.56 87.5252 294.497 86.9398 294.497 86.2185C294.497 85.4972 294.56 84.9119 294.633 84.9119C294.706 84.9119 294.769 85.4972 294.769 86.2185C294.769 86.9398 294.706 87.5252 294.633 87.5252Z" fill="#EBEBEB"/>
<path d="M294.633 92.752C294.56 92.752 294.497 92.1666 294.497 91.4453C294.497 90.7241 294.56 90.1387 294.633 90.1387C294.706 90.1387 294.769 90.7241 294.769 91.4453C294.769 92.1666 294.706 92.752 294.633 92.752Z" fill="#EBEBEB"/>
<path d="M294.633 97.9785C294.56 97.9785 294.497 97.3932 294.497 96.6719C294.497 95.9506 294.56 95.3652 294.633 95.3652C294.706 95.3652 294.769 95.9506 294.769 96.6719C294.769 97.3932 294.706 97.9785 294.633 97.9785Z" fill="#EBEBEB"/>
<path d="M294.633 103.205C294.56 103.205 294.497 102.62 294.497 101.898C294.497 101.177 294.56 100.592 294.633 100.592C294.706 100.592 294.769 101.177 294.769 101.898C294.769 102.62 294.706 103.205 294.633 103.205Z" fill="#EBEBEB"/>
<path d="M294.633 108.432C294.56 108.432 294.497 107.846 294.497 107.125C294.497 106.404 294.56 105.818 294.633 105.818C294.706 105.818 294.769 106.404 294.769 107.125C294.769 107.846 294.706 108.432 294.633 108.432Z" fill="#EBEBEB"/>
<path d="M160.868 32.8862C160.868 32.8862 156.812 30.6387 152.835 40.2348C148.857 49.8309 147.493 55.2875 147.493 55.2875C147.493 55.2875 146.401 57.3154 144.974 56.1603C143.547 55 141.446 51.5609 139.24 52.3815C136.951 53.2334 136.387 55.9095 137.134 59.7092C137.881 63.5142 139.214 71.9029 139.334 72.666C139.449 73.4134 139.11 74.5476 138.007 73.9152C136.909 73.2828 130.386 67.0735 127.627 70.3454C124.867 73.6173 128.693 83.8667 129.09 84.9957C129.487 86.1246 129.299 86.6368 128.777 86.9609C128.249 87.2901 126.257 84.9957 124.329 83.3074C122.4 81.6192 119.87 79.999 118.438 82.0165C117.006 84.0392 117.116 91.9471 125.609 104.141L129.916 109.535L136.784 108.61C151.366 105.735 156.938 100.122 157.309 97.6702C157.68 95.2189 154.732 94.6283 152.176 94.5081C149.615 94.3879 146.589 94.6492 146.437 94.0482C146.286 93.4471 146.505 92.9506 147.577 92.4122C148.648 91.8739 158.516 87.1543 158.804 82.8841C159.091 78.6139 150.086 78.5512 148.857 78.2429C147.629 77.9345 148.173 76.8787 148.774 76.424C149.385 75.9588 156.175 70.8472 159.352 68.6311C162.53 66.415 163.983 64.0996 162.927 61.894C161.914 59.7719 158.009 60.7859 156.18 60.6291C154.351 60.4723 154.973 58.2562 154.973 58.2562C154.973 58.2562 157.784 53.3798 161.584 43.7157C165.384 34.0517 160.79 32.8443 160.79 32.8443" fill="#F6F6F6"/>
<path d="M130.151 108.108C132.968 101.02 136.945 91.2624 141.372 80.4955C145.799 69.7339 149.798 59.9862 152.657 52.9146C154.078 49.3866 155.233 46.5276 156.033 44.5363C156.43 43.5537 156.739 42.7906 156.953 42.2575C157.058 42.0066 157.141 41.808 157.199 41.6669C157.256 41.5362 157.288 41.4683 157.288 41.4683C157.288 41.4683 157.267 41.5414 157.22 41.6773C157.167 41.8237 157.094 42.0223 156.995 42.2784C156.791 42.8115 156.493 43.585 156.117 44.5729C155.348 46.5642 154.22 49.4336 152.808 52.9773C149.991 60.0646 146.014 69.8227 141.587 80.5844C137.16 91.3512 133.156 101.099 130.302 108.17" fill="#E0E0E0"/>
<path d="M141.989 57.3156C142.005 57.3103 142.078 57.4724 142.203 57.765C142.329 58.063 142.496 58.4915 142.694 59.0299C143.097 60.1066 143.609 61.6014 144.142 63.2687C144.66 64.9098 145.13 66.389 145.491 67.5336C145.653 68.0406 145.794 68.4692 145.904 68.8246C146.003 69.1277 146.05 69.3002 146.034 69.3054C146.019 69.3107 145.94 69.1486 145.815 68.8559C145.689 68.558 145.522 68.1242 145.329 67.5859C144.937 66.5092 144.445 65.0039 143.912 63.3366C143.384 61.7007 142.903 60.2268 142.532 59.0822C142.365 58.5752 142.224 58.1466 142.109 57.7912C142.02 57.4933 141.973 57.3208 141.989 57.3156Z" fill="#E0E0E0"/>
<path d="M146.683 69.3835C146.662 69.3208 149.704 68.1239 153.477 66.7127C157.256 65.2963 160.335 64.204 160.356 64.2614C160.376 64.3242 157.335 65.5211 153.561 66.9322C149.787 68.3487 146.704 69.4463 146.683 69.3835Z" fill="#E0E0E0"/>
<path d="M139.136 85.6071C139.136 85.5915 139.313 85.5653 139.643 85.5392C140.019 85.5078 140.479 85.4765 141.023 85.4347C142.188 85.3458 143.798 85.2099 145.565 85.0061C147.336 84.8022 148.93 84.5618 150.086 84.3789C150.624 84.2953 151.079 84.2221 151.455 84.1646C151.779 84.1175 151.957 84.0966 151.962 84.1123C151.967 84.128 151.789 84.1803 151.471 84.2534C151.152 84.3266 150.687 84.4311 150.112 84.5409C148.962 84.7657 147.362 85.0322 145.591 85.236C143.814 85.4451 142.199 85.5496 141.028 85.5967C140.442 85.6176 139.967 85.6333 139.643 85.628C139.319 85.628 139.141 85.6228 139.136 85.6071Z" fill="#E0E0E0"/>
<path d="M132.493 75.6244C132.508 75.6139 132.613 75.7446 132.796 75.985C132.979 76.2254 133.235 76.5808 133.548 77.0199C134.176 77.8979 135.033 79.1262 135.963 80.4851C136.893 81.8441 137.73 83.088 138.32 83.9922C138.618 84.4417 138.853 84.8128 139.01 85.0689C139.167 85.325 139.251 85.4713 139.235 85.4818C139.219 85.4922 139.115 85.3616 138.932 85.1211C138.749 84.8807 138.493 84.5253 138.179 84.0863C137.552 83.2082 136.695 81.9799 135.764 80.621C134.834 79.2621 133.998 78.0234 133.407 77.1192C133.109 76.6697 132.874 76.2986 132.717 76.0425C132.561 75.7812 132.477 75.6348 132.493 75.6244Z" fill="#E0E0E0"/>
<path d="M124.01 89.0986C124.025 89.0882 124.156 89.2554 124.391 89.5638C124.647 89.914 124.971 90.3582 125.363 90.8861C126.174 92.0098 127.282 93.5726 128.494 95.3026C129.707 97.0379 130.789 98.6111 131.567 99.7609C131.933 100.31 132.236 100.764 132.477 101.125C132.686 101.449 132.796 101.637 132.785 101.643C132.77 101.653 132.639 101.486 132.404 101.177C132.148 100.827 131.824 100.383 131.432 99.855C130.621 98.7313 129.513 97.1685 128.301 95.4385C127.088 93.7085 126.006 92.1301 125.228 90.9802C124.862 90.4314 124.559 89.9767 124.318 89.616C124.104 89.292 123.994 89.1091 124.01 89.0986Z" fill="#E0E0E0"/>
<path d="M132.654 101.292C132.654 101.277 132.879 101.24 133.292 101.193C133.747 101.141 134.337 101.073 135.038 100.994C136.512 100.827 138.545 100.587 140.787 100.263C143.029 99.9386 145.047 99.5988 146.505 99.3375C147.2 99.2173 147.78 99.1128 148.235 99.0344C148.643 98.9664 148.873 98.9351 148.878 98.9507C148.883 98.9664 148.658 99.0291 148.256 99.1232C147.853 99.2225 147.268 99.3532 146.536 99.4995C145.083 99.7975 143.061 100.169 140.818 100.493C138.576 100.817 136.532 101.031 135.053 101.156C134.311 101.219 133.715 101.261 133.297 101.282C132.884 101.303 132.654 101.308 132.654 101.292Z" fill="#E0E0E0"/>
<path d="M313 121.221C313 109.916 302.782 100.994 291.074 103.19C283.71 104.569 277.845 110.585 276.554 117.965C275.75 122.58 276.701 126.918 278.802 130.499H278.791L278.844 130.567C279.549 131.753 280.433 132.6 281.321 133.849L291.983 147.971C293.311 149.727 295.95 149.727 297.278 147.971L307.763 134.079C307.763 134.079 309.717 131.743 310.428 130.546L310.465 130.493H310.46C312.064 127.77 313 124.608 313 121.221ZM294.633 129.218C290.17 129.218 286.553 125.601 286.553 121.138C286.553 116.674 290.17 113.057 294.633 113.057C299.097 113.057 302.714 116.674 302.714 121.138C302.714 125.596 299.097 129.218 294.633 129.218Z" fill="#F6F6F6"/>
<path d="M226.29 39.5656V61.162C226.29 61.6272 226.666 62.0035 227.132 62.0035H272.415C272.885 62.0035 273.262 61.622 273.257 61.1516L273.152 53.2437C273.152 53.066 273.089 52.8935 272.985 52.7524L266.488 44.071C266.331 43.8619 266.086 43.7365 265.819 43.7312L258.335 43.6737C257.875 43.6685 257.498 43.2922 257.498 42.8323V39.5656C257.498 39.1004 257.122 38.7241 256.657 38.7241H227.126C226.666 38.7241 226.29 39.1004 226.29 39.5656Z" fill="#F6F6F6"/>
<path d="M259.61 45.5553V52.4858C259.61 52.7576 259.829 52.9719 260.101 52.9667L270.1 52.789C270.481 52.7837 270.706 52.3552 270.492 52.0363L265.819 45.1424C265.725 45.0065 265.573 44.9281 265.406 44.9334L260.085 45.0745C259.819 45.0797 259.61 45.294 259.61 45.5553Z" fill="#EBEBEB"/>
<path d="M274.161 62.6621H225.38V64.1674H274.161V62.6621Z" fill="#F5F5F5"/>
<path d="M240.093 66.6504C241.977 64.7665 241.977 61.712 240.093 59.8281C238.209 57.9441 235.155 57.9441 233.271 59.8281C231.387 61.712 231.387 64.7665 233.271 66.6504C235.155 68.5344 238.209 68.5344 240.093 66.6504Z" fill="#EBEBEB"/>
<path d="M239.524 63.237C239.524 64.805 238.254 66.075 236.686 66.075C235.118 66.075 233.848 64.805 233.848 63.237C233.848 61.669 235.118 60.3989 236.686 60.3989C238.254 60.3989 239.524 61.669 239.524 63.237Z" fill="#FAFAFA"/>
<path d="M257.467 62.0035C257.346 62.0035 257.247 56.7926 257.247 50.3638C257.247 43.9351 257.346 38.7241 257.467 38.7241C257.587 38.7241 257.686 43.9351 257.686 50.3638C257.686 56.7926 257.587 62.0035 257.467 62.0035Z" fill="#EBEBEB"/>
<path d="M266.388 66.6485C268.272 64.7645 268.272 61.7101 266.388 59.8261C264.504 57.9422 261.449 57.9422 259.565 59.8261C257.682 61.7101 257.682 64.7645 259.565 66.6485C261.449 68.5324 264.504 68.5324 266.388 66.6485Z" fill="#EBEBEB"/>
<path d="M265.819 63.2367C265.819 64.8047 264.549 66.0748 262.981 66.0748C261.413 66.0748 260.143 64.8047 260.143 63.2367C260.143 61.6688 261.413 60.3987 262.981 60.3987C264.549 60.3987 265.819 61.6688 265.819 63.2367Z" fill="#FAFAFA"/>
<path d="M262.991 54.336C262.991 54.4562 262.302 54.5555 261.45 54.5555C260.598 54.5555 259.908 54.4562 259.908 54.336C259.908 54.2158 260.598 54.1165 261.45 54.1165C262.302 54.1165 262.991 54.2105 262.991 54.336Z" fill="#EBEBEB"/>
<path d="M29.2252 213.074C36.2655 208.193 37.891 199.088 37.6453 190.898C37.6035 189.528 37.7603 188.091 37.1122 186.889C36.4641 185.687 34.9536 184.861 33.7253 185.436C32.7061 185.911 32.2619 187.087 31.6922 188.065C30.9343 189.361 29.8001 190.432 28.4778 191.117C27.6049 191.567 26.5283 191.838 25.6711 191.363C24.4951 190.709 24.3592 189.079 24.3749 187.72C24.401 185.185 24.4219 182.65 24.4481 180.12C24.4637 178.761 24.469 177.371 24.0508 176.08C23.6327 174.789 22.7024 173.587 21.4114 173.221C20.1204 172.855 18.5158 173.592 18.2388 174.925C18.1238 175.479 18.2336 176.054 18.1918 176.619C18.15 177.183 17.8886 177.805 17.3503 177.962C16.8067 178.119 16.2632 177.732 15.8607 177.335C14.46 175.955 13.514 174.183 12.6307 172.422C11.7474 170.66 10.8902 168.857 9.62012 167.357C8.35004 165.857 6.59389 164.66 4.64959 164.545C2.70005 164.43 0.625083 165.622 0.123327 167.535C-0.37843 169.448 0.734841 171.397 1.94742 172.955C3.74538 175.265 5.87262 177.308 8.24551 179.002C8.67409 179.305 9.13404 179.639 9.29606 180.141C9.58875 181.051 8.72636 181.944 7.8326 182.242C6.81864 182.577 5.72105 182.467 4.66004 182.587C3.59904 182.708 2.44918 183.173 2.04673 184.171C1.48748 185.556 2.64256 187.019 3.78197 187.976C6.066 189.894 8.67409 191.415 11.4599 192.445C12.4582 192.816 13.5087 193.14 14.3136 193.845C15.1185 194.551 15.5994 195.774 15.1081 196.731C14.6168 197.687 13.3676 197.99 12.317 197.792C11.2717 197.593 10.3362 197.023 9.33787 196.642C7.47197 195.931 5.05726 196.051 3.85514 197.661C3.06592 198.722 2.99274 200.196 3.38474 201.466C3.77674 202.731 4.58164 203.823 5.43358 204.832C8.41798 208.355 12.2387 211.198 16.5715 212.714C20.8992 214.214 24.9132 214.632 29.2252 213.074Z" fill="#09B44D"/>
<path d="M28.7599 215.379C28.4725 212.133 28.3261 212.065 27.1292 207.931C25.9375 203.792 24.2546 199.37 22.3416 194.797C21.8555 193.657 21.3799 192.528 20.9095 191.42C20.4391 190.312 19.9687 189.215 19.4408 188.169C18.4007 186.073 17.2404 184.134 16.0801 182.331C14.9198 180.528 13.7543 178.855 12.6567 177.303C11.5539 175.751 10.4929 174.324 9.47366 173.064C7.4405 170.535 5.56936 168.695 4.22612 167.482C3.55711 166.876 3.024 166.421 2.65813 166.113C2.48043 165.967 2.34454 165.857 2.24 165.768C2.14592 165.69 2.09366 165.653 2.09366 165.658C2.08843 165.663 2.13547 165.705 2.22432 165.789C2.32363 165.878 2.45952 165.998 2.62677 166.15C2.98218 166.463 3.50485 166.933 4.1634 167.55C5.48051 168.784 7.33074 170.639 9.33776 173.174C10.3465 174.439 11.3918 175.866 12.4842 177.423C13.5766 178.981 14.7369 180.653 15.8867 182.457C17.0366 184.26 18.1864 186.194 19.2213 188.279C19.744 189.319 20.2039 190.412 20.6795 191.52C21.1499 192.628 21.6256 193.757 22.1116 194.896C24.0298 199.464 25.7128 203.875 26.9097 207.994C28.117 212.112 28.2791 212.16 28.5822 215.39" fill="#263238"/>
<path d="M19.3729 188.159C19.3885 188.164 19.4356 187.955 19.5088 187.579C19.5819 187.203 19.6708 186.659 19.7649 185.98C19.9635 184.626 20.1725 182.749 20.3921 180.68C20.6116 178.61 20.8468 176.739 21.0663 175.39C21.1708 174.716 21.2649 174.173 21.3328 173.796C21.4008 173.42 21.4269 173.211 21.4112 173.206C21.3956 173.2 21.3328 173.404 21.2388 173.775C21.1395 174.146 21.0245 174.685 20.8938 175.359C20.6325 176.702 20.3659 178.579 20.1464 180.648C19.9321 182.692 19.7387 184.542 19.5924 185.953C19.5192 186.591 19.4617 187.129 19.4147 187.563C19.3676 187.945 19.3519 188.154 19.3729 188.159Z" fill="#263238"/>
<path d="M1.90039 184.83C1.90039 184.845 2.14604 184.877 2.59553 184.913C3.04502 184.955 3.69312 185.013 4.4928 185.107C6.09215 185.284 8.29778 185.608 10.7073 186.074C13.122 186.544 15.2858 187.056 16.8433 187.48C17.6221 187.683 18.2493 187.866 18.6831 187.986C19.1169 188.112 19.3573 188.175 19.3626 188.154C19.3678 188.138 19.1378 188.044 18.7092 187.892C18.2859 187.741 17.6639 187.532 16.8851 187.307C15.3381 186.842 13.169 186.298 10.7491 185.828C8.32914 185.363 6.11305 185.065 4.50325 184.934C3.69835 184.861 3.04502 184.83 2.59553 184.819C2.15127 184.809 1.90562 184.814 1.90039 184.83Z" fill="#263238"/>
<path d="M26.9147 207.612C26.9252 207.618 26.9618 207.544 27.0349 207.398C27.1186 207.226 27.2179 207.017 27.3381 206.766C27.5994 206.217 27.9496 205.412 28.3782 204.414C29.2301 202.412 30.3173 199.616 31.4723 196.511C32.6327 193.406 33.6937 190.6 34.4986 188.587C34.8958 187.61 35.2198 186.805 35.4603 186.204C35.5648 185.943 35.6484 185.729 35.7164 185.556C35.7739 185.404 35.8 185.326 35.7895 185.321C35.7791 185.316 35.7425 185.389 35.6693 185.535C35.5857 185.708 35.4864 185.911 35.3662 186.168C35.1048 186.716 34.7547 187.521 34.3261 188.52C33.4741 190.521 32.387 193.318 31.2267 196.422C30.0664 199.527 29.0054 202.333 28.2005 204.346C27.8032 205.323 27.4792 206.128 27.2388 206.729C27.1342 206.99 27.0506 207.205 26.9827 207.377C26.9356 207.529 26.9095 207.607 26.9147 207.612Z" fill="#263238"/>
<path d="M3.71436 200.044C3.71436 200.055 3.79275 200.086 3.94432 200.138C4.12726 200.201 4.34678 200.274 4.61856 200.368C5.24053 200.572 6.08202 200.849 7.10121 201.184C9.19709 201.874 12.0874 202.856 15.2757 203.949C18.4639 205.041 21.3647 205.998 23.4762 206.646C24.532 206.97 25.3892 207.221 25.985 207.383C26.262 207.456 26.4868 207.518 26.6749 207.566C26.8317 207.602 26.9154 207.623 26.9206 207.613C26.9206 207.602 26.8422 207.571 26.6906 207.518C26.5077 207.456 26.2882 207.383 26.0164 207.289C25.3944 207.085 24.5529 206.808 23.5337 206.473C21.4379 205.783 18.5475 204.801 15.3593 203.708C12.171 202.616 9.27549 201.659 7.1587 201.011C6.10292 200.687 5.24575 200.436 4.64992 200.274C4.37291 200.201 4.14816 200.138 3.96 200.091C3.8032 200.05 3.71958 200.034 3.71436 200.044Z" fill="#263238"/>
<path d="M114.095 215.374H41.3561C32.5649 215.332 25.1379 207.837 25.1745 199.051L25.948 15.8525C25.9846 7.05609 33.1451 -0.0364455 41.9415 0.000140912L115.015 0.339873C123.806 0.381686 130.899 7.53694 130.857 16.3229L130.083 199.521C130.052 208.318 122.892 215.416 114.095 215.374Z" fill="#263238"/>
<path d="M114.916 7.29652L100.747 7.2338C98.8493 7.22335 97.2969 8.82792 97.2917 10.814L97.2813 13.3855C97.2708 15.3717 95.7237 16.9762 93.8265 16.9658L66.209 16.8403C64.3117 16.8299 62.7751 15.2149 62.7855 13.2287L62.796 10.6572C62.8064 8.67113 61.2698 7.05087 59.3725 7.04564L54.3863 7.01951L41.9835 6.96202C35.8266 6.93588 30.809 11.9064 30.7829 18.0634L30.025 196.882C29.9989 203.039 34.9642 208.051 41.1211 208.077L114.048 208.412C120.205 208.438 125.223 203.468 125.249 197.311L126.007 18.492C126.038 12.3402 121.068 7.32788 114.916 7.29652Z" fill="#F5F5F5"/>
<path d="M83.9639 174.622C83.8802 176.78 83.8018 178.808 83.7339 180.491H94.2081L92.9275 174.057L83.9639 174.622Z" fill="#F6F6F6"/>
<path d="M41.3877 177.314L41.4765 180.486H82.6885C82.7565 178.704 82.8349 176.723 82.9133 174.685L41.3877 177.314Z" fill="#F6F6F6"/>
<path d="M93.4556 174.021L94.7413 180.491H114.059L113.824 172.735L93.4556 174.021Z" fill="#F6F6F6"/>
<path d="M85.0095 83.6053L88.6629 62.4323L79.0981 61.7214V83.6053H85.0095Z" fill="#F6F6F6"/>
<path d="M40.5252 165.559L30.1451 169.625L30.1138 176.979L40.8336 176.3L40.5252 165.559Z" fill="#F6F6F6"/>
<path d="M40.4782 163.907L39.9085 144.187H39.9033V137.231L30.2758 138.25L30.1504 167.942L40.473 163.897L40.4782 163.907Z" fill="#F6F6F6"/>
<path d="M39.9036 121.707L30.3546 120.443L30.2866 136.677L39.9036 135.657V121.707Z" fill="#F6F6F6"/>
<path d="M111.085 137.523L110.682 143.178L99.4033 144.391L100.276 148.865L113.076 147.898L112.888 141.485L113.907 137.241L111.085 137.523Z" fill="#F6F6F6"/>
<path d="M90.7529 149.581L99.7479 148.902L97.7879 138.866L89.9375 139.661L90.7529 149.581Z" fill="#F6F6F6"/>
<path d="M90.8423 150.621L91.527 158.994L92.7448 170.472L93.2465 172.986L113.792 171.685L113.108 148.944L90.8423 150.621Z" fill="#F6F6F6"/>
<path d="M55.4784 111.108L56.2676 112.462L40.4257 121.702V143.623L57.1457 142.442L89.3731 139.191L88.1919 124.823L57.4018 120.798L57.6056 119.246L88.0612 123.223L86.0646 98.9037L55.9227 101.804L55.8234 100.764L85.981 97.8636L84.9409 85.1733H55.9436L30.4794 89.8094L30.354 118.869L39.9971 120.139L55.4784 111.108ZM42.046 141.532C42.046 141.532 42.1662 123.458 42.046 122.779L54.9767 115.901L56.6544 140.607L42.046 141.532Z" fill="#F6F6F6"/>
<path d="M110.029 137.633L98.311 138.814L99.1996 143.361L109.7 142.232L110.029 137.633Z" fill="#F6F6F6"/>
<path d="M84.1107 170.749C84.0741 171.7 84.0376 172.641 84.001 173.571L92.719 173.017L92.2695 170.77L84.1107 170.749Z" fill="#F6F6F6"/>
<path d="M65.3305 83.6053L66.8671 76.6434H78.5747V61.6848L41.9727 58.9722V73.0161L30.542 75.6033L30.4897 88.2099L55.8023 83.6053H65.3305Z" fill="#F6F6F6"/>
<path d="M89.755 41.9856L89.4414 40.7051L103.417 35.1753L94.3283 16.9239C94.1663 16.9501 93.999 16.9658 93.8265 16.9658L78.3818 16.8926L78.8 42.4299L89.755 41.9856Z" fill="#F6F6F6"/>
<path d="M110.933 32.1963L110.918 7.28098L100.747 7.23394C98.8494 7.22348 97.2971 8.82806 97.2919 10.8142L97.2814 13.3857C97.2762 14.6139 96.6856 15.6906 95.7866 16.3335L104.881 34.5953L110.933 32.1963Z" fill="#F6F6F6"/>
<path d="M58.3949 33.2677L57.2189 7.03523L54.3861 7.01955L43.3318 6.96729L38.6226 30.4296L58.3949 33.2677ZM55.8757 9.69036L56.252 31.0568L41.5599 28.9087L44.7795 9.69558L55.8757 9.69036Z" fill="#F6F6F6"/>
<path d="M58.9278 33.3461L58.933 33.5708C58.9592 35.6196 59.001 39.3044 59.0323 43.2453L78.282 42.4613L77.8639 16.8979L66.2137 16.8456C64.3165 16.8351 62.7798 15.2201 62.7903 13.234L62.8007 10.6625C62.8112 8.67636 61.2746 7.05611 59.3773 7.05088L57.7466 7.04565L58.9278 33.3513V33.3461Z" fill="#F6F6F6"/>
<path d="M37.0707 30.2048L41.7328 6.97241C35.6908 7.08217 30.8144 11.99 30.7883 18.0633L30.7412 29.6455L30.7883 29.3058L37.0707 30.2048Z" fill="#F6F6F6"/>
<path d="M40.4053 58.8574L30.6158 58.1309L30.5479 73.9937L40.4053 71.7619V58.8574Z" fill="#F6F6F6"/>
<path d="M36.9659 30.717L30.7357 29.8232L30.626 55.5121L31.9692 55.6114L36.9659 30.717Z" fill="#F6F6F6"/>
<path d="M56.7382 163.604L56.9003 142.985L40.4312 144.151L41.0165 164.352L56.7382 163.604Z" fill="#F6F6F6"/>
<path d="M59.7695 158.848L83.096 170.022C83.373 162.721 83.6239 155.895 83.5977 155.456L84.1047 155.43L84.3503 154.938C84.6796 155.106 84.6796 155.106 84.5071 160.081C84.4078 162.857 84.2719 166.552 84.1308 170.252H92.1955L91.0038 159.046L89.4149 139.713L58.9385 142.786L59.7695 158.848Z" fill="#F6F6F6"/>
<path d="M116.944 124.619L116.677 121.901L88.7197 124.812L89.8957 139.138L114.038 136.703L116.944 124.619Z" fill="#F6F6F6"/>
<path d="M78.5753 78.2114H68.1272L66.9355 83.6053H78.5753V78.2114Z" fill="#F6F6F6"/>
<path d="M112.627 80.0303L86.4676 78.2219L85.4014 84.3998L86.5042 97.8113L114.09 95.1562L112.627 80.0303ZM87.4293 84.3893L88.8353 80.4903L111.555 81.9276L112.873 93.0865L88.2028 96.0134L87.4293 84.3893Z" fill="#F6F6F6"/>
<path d="M115.34 108.061L114.19 96.2017L86.5879 98.8516L87.628 111.479L115.34 108.061Z" fill="#F6F6F6"/>
<path d="M40.865 177.345L30.1556 178.024L30.1138 177.329L30.0981 180.491H40.9539L40.865 177.345Z" fill="#F6F6F6"/>
<path d="M125.819 26.3059L125.976 26.7032L126.012 18.4921C126.038 12.3352 121.073 7.32804 114.916 7.29669L111.44 7.28101L111.456 31.9873L125.819 26.3059Z" fill="#F6F6F6"/>
<path d="M83.0704 170.592L59.2631 159.188L58.4216 142.844L57.4233 142.943L57.256 164.106L41.0273 164.874L41.043 165.345L41.0482 165.355H41.043L41.3566 176.268L82.9554 173.639C82.992 172.625 83.0338 171.606 83.0704 170.592ZM42.0465 166.217L64.7615 164.623L79.5371 171.481L42.0465 173.509V166.217Z" fill="#F6F6F6"/>
<path d="M119.05 53.7508L120.023 47.9753C111.482 44.9282 110.892 36.0273 110.918 33.3303L105.346 35.536L113.74 52.3814L119.05 53.7508Z" fill="#F6F6F6"/>
<path d="M88.5892 123.249L100.198 122.042L97.9135 111.787L87.7529 113.042L88.5892 123.249Z" fill="#F6F6F6"/>
<path d="M112.669 62.6046H90.9836L89.1856 62.4688L86.7344 76.6643L112.47 78.4466L111.874 72.2739L114.409 63.1587L112.669 62.6046Z" fill="#F6F6F6"/>
<path d="M112.135 59.9914L112.407 53.2125L103.887 36.1057L90.6743 41.3323L95.2163 59.9862H112.135V59.9914ZM103.37 38.1911L111.178 53.0452L110.049 57.676L96.6902 57.1743L93.3503 43.1251L103.37 38.1911Z" fill="#F6F6F6"/>
<path d="M115.506 141.757L115.909 155.069L125.301 154.541L125.332 155.064L115.924 155.592L116.4 171.523L125.285 170.958L125.348 172.003L116.431 172.568L116.672 180.491H125.327L125.515 136.07L116.661 136.964L115.506 141.757Z" fill="#F6F6F6"/>
<path d="M58.4108 33.7956L38.5182 30.9419L33.5425 55.7266L58.4996 57.5768C58.5989 53.7614 58.5101 42.0537 58.4108 33.7956Z" fill="#F6F6F6"/>
<path d="M91.1297 59.9915H94.1402L89.8805 42.5032L78.8105 42.9579L79.0771 59.1029L91.1297 59.9915Z" fill="#F6F6F6"/>
<path d="M30.046 193.213L30.0303 196.882C30.0303 196.997 30.0407 197.107 30.046 197.216V193.213Z" fill="#F6F6F6"/>
<path d="M59.0068 57.6133L78.5492 59.0611L78.2826 42.9788L59.0277 43.768C59.0748 49.2037 59.0905 55.0052 59.0068 57.6133Z" fill="#F6F6F6"/>
<path d="M115.491 109.624L98.4312 111.725L100.726 121.985L116.526 120.343L115.491 109.624Z" fill="#F6F6F6"/>
<path d="M120.117 47.4476L121.209 40.9665L125.918 41.3324L125.976 27.3721L111.451 33.1214C111.153 42.9422 117.326 46.397 120.117 47.4476Z" fill="#F6F6F6"/>
<path d="M114.524 72.5041L115.115 78.6297L125.756 79.3667L125.808 66.7548L116.902 63.9429L114.524 72.5041Z" fill="#F6F6F6"/>
<path d="M119.583 124.807L116.787 136.426L125.51 135.548L125.563 123.364C122.887 122.659 120.55 122.084 119.291 121.844L119.583 124.807Z" fill="#F6F6F6"/>
<path d="M113.698 60.1901L125.819 64.0212L125.85 57.1273L113.944 54.0488L113.698 60.1901Z" fill="#F6F6F6"/>
<path d="M119.144 120.244C120.122 120.39 121.972 120.782 125.573 121.734L125.688 95.0935L116.792 95.9507L119.144 120.244Z" fill="#F6F6F6"/>
<path d="M116.692 94.9104L125.693 94.0428L125.745 80.9396L115.266 80.2131L116.692 94.9104Z" fill="#F6F6F6"/>
<path d="M121.12 47.7769C122.824 48.2943 124.412 48.6967 125.881 48.9894L125.907 42.3777L122.076 42.0798L121.12 47.7769Z" fill="#F6F6F6"/>
<path d="M120.069 54.0121L125.855 55.5069L125.881 49.5277C124.387 49.2298 122.772 48.8221 121.031 48.2942L120.069 54.0121Z" fill="#F6F6F6"/>
<path d="M40.865 177.345L40.9538 180.486H41.4765L41.3876 177.314L82.9132 174.685C82.8348 176.723 82.7564 178.704 82.6884 180.486H83.7338C83.8017 178.803 83.8801 176.775 83.9637 174.617L92.9274 174.052L94.2079 180.486H94.741L93.4501 174.016L113.818 172.725L114.053 180.481H116.667L116.426 172.557L125.343 171.993L125.275 170.948L116.395 171.507L115.914 155.576L125.322 155.048L125.291 154.525L115.898 155.053L115.501 141.741L116.656 136.943L125.51 136.049V135.521L116.787 136.4L119.583 124.781L119.296 121.812C120.55 122.052 122.886 122.627 125.568 123.333L125.573 121.702C121.972 120.756 120.122 120.364 119.144 120.213L116.792 95.9193L125.688 95.0621L125.693 94.0116L116.693 94.8792L115.271 80.1819L125.751 80.9084L125.756 79.3352L115.114 78.5982L114.524 72.4726L116.902 63.9114L125.808 66.7233L125.819 63.9846L113.698 60.1587L113.944 54.0174L125.85 57.0959L125.855 55.4809L120.069 53.986L121.031 48.2733C122.766 48.8012 124.381 49.2089 125.881 49.5068V48.9685C124.413 48.6758 122.824 48.2733 121.12 47.7559L122.082 42.0589L125.913 42.3568L125.918 41.3062L121.209 40.9404L120.116 47.4214C117.331 46.3708 111.158 42.916 111.451 33.09L125.975 27.3407L125.981 26.6769L125.824 26.2797L111.461 31.961L111.445 7.25475H110.923L110.938 32.1701L104.886 34.5639L95.7916 16.302C95.363 16.6104 94.8717 16.8143 94.3334 16.8927L103.422 35.1388L89.4412 40.7052L89.7548 41.9857L78.7998 42.4352L78.3817 16.8979H77.859L78.2772 42.4613L59.0275 43.2453C58.9961 39.3044 58.9543 35.6197 58.9282 33.5708L58.9229 33.3461H58.9177L57.7365 7.04046H57.2138L58.3898 33.2729L38.6175 30.4349L43.3267 6.97251L41.9782 6.96729C41.8946 6.96729 41.811 6.97774 41.7221 6.97774L37.06 30.2101L30.7776 29.3059L30.7305 29.6456V29.8233L36.9607 30.7171L31.964 55.6115L30.6208 55.5122L30.6103 58.1308L40.3998 58.8573V71.767L30.5424 73.9988L30.5371 75.6086L41.9678 73.0214V58.9775L78.5646 61.6901V76.6487H66.8622L65.3256 83.6106H55.7974L30.4849 88.2152L30.4796 89.8094L55.9438 85.1733H84.9411L85.9812 97.8636L55.8236 100.764L55.9229 101.804L86.0648 98.9037L88.0614 123.223L57.6058 119.246L57.402 120.798L88.1921 124.823L89.3733 139.191L57.1459 142.442L40.4259 143.623V121.702L56.2678 112.462L55.4786 111.108L39.9973 120.134L30.3542 118.864L30.349 120.443L39.898 121.702V135.652L30.281 136.671L30.2758 138.25L39.9032 137.231V144.187H39.9085L40.4782 163.907L40.473 163.897L30.1504 167.942L30.1451 169.63L40.5252 165.564L40.8336 176.305L30.1138 176.984V177.334L30.1556 178.03L40.865 177.345ZM84.0056 173.571C84.0421 172.641 84.0787 171.7 84.1153 170.749L92.2793 170.77L92.7288 173.017L84.0056 173.571ZM93.2462 172.986L92.7445 170.472L91.5267 158.994L90.8367 150.626L113.107 148.949L113.792 171.69L93.2462 172.986ZM98.3108 138.814L110.024 137.633L109.694 142.232L99.1941 143.367L98.3108 138.814ZM97.7882 138.867L99.7482 148.902L90.7531 149.581L89.9378 139.656L97.7882 138.867ZM113.076 147.898L100.271 148.865L99.398 144.391L110.677 143.173L111.079 137.523L113.902 137.236L112.883 141.485L113.076 147.898ZM97.9136 111.787L100.203 122.037L88.5945 123.244L87.7583 113.037L97.9136 111.787ZM100.726 121.984L98.4363 111.725L115.491 109.624L116.531 120.343L100.726 121.984ZM112.47 78.4467L86.7339 76.6644L89.1851 62.4689L90.9831 62.6048L112.663 62.61L114.404 63.1588L111.869 72.2793L112.47 78.4467ZM110.923 33.3252C110.897 36.0221 111.487 44.9231 120.027 47.9702L119.055 53.7456L113.745 52.371L105.351 35.5256L110.923 33.3252ZM103.888 36.111L112.407 53.2177L112.135 59.9967H95.2167L90.6747 41.3428L103.888 36.111ZM89.8803 42.5031L94.14 59.9914H91.1294L79.0768 59.0977L78.8103 42.9526L89.8803 42.5031ZM78.2876 42.9788L78.5542 59.0611L59.0118 57.6133C59.0954 55.0052 59.0745 49.2037 59.0379 43.7628L78.2876 42.9788ZM38.5182 30.9418L58.4107 33.7956C58.51 42.0536 58.5989 53.7561 58.4996 57.5715L33.5424 55.7213L38.5182 30.9418ZM88.6625 62.4323L85.0091 83.6054H79.0977V61.7215L88.6625 62.4323ZM68.127 78.2115H78.5698V83.6054H66.9354L68.127 78.2115ZM85.4011 84.3998L86.4673 78.2219L112.627 80.0303L114.09 95.1614L86.5039 97.8166L85.4011 84.3998ZM114.189 96.2015L115.339 108.066L87.6276 111.479L86.5927 98.8567L114.189 96.2015ZM88.72 124.812L116.677 121.906L116.939 124.624L114.033 136.703L89.8907 139.138L88.72 124.812ZM91.0092 159.041L92.2009 170.247H84.1362C84.2773 166.552 84.4132 162.857 84.5125 160.076C84.685 155.1 84.685 155.1 84.3557 154.933L84.1101 155.424L83.6031 155.451C83.624 155.884 83.3784 162.716 83.1013 170.017L59.7749 158.843L58.9491 142.781L89.4256 139.708L91.0092 159.041ZM56.9002 142.985L56.7382 163.609L41.0165 164.357L40.4364 144.156L56.9002 142.985ZM41.0427 165.355V165.345L41.027 164.874L57.2557 164.106L57.4229 142.943L58.4212 142.844L59.2627 159.188L83.07 170.592C83.0334 171.606 82.9916 172.625 82.955 173.639L41.3563 176.268L41.0427 165.355Z" fill="white"/>
<path d="M64.7613 164.629L42.0464 166.218V173.509L79.537 171.481L64.7613 164.629Z" fill="#F6F6F6"/>
<path d="M111.555 81.9276L88.8347 80.4902L87.4287 84.3893L88.197 96.0081L112.867 93.0812L111.555 81.9276Z" fill="#F6F6F6"/>
<path d="M41.1264 208.077L114.054 208.412C120.21 208.438 125.228 203.468 125.254 197.311L125.327 180.486H116.672H114.059H94.7464H94.2132H83.7391H82.6937H41.4765H40.9539H30.0982L30.0459 193.208V197.211C30.1975 203.217 35.0844 208.046 41.1264 208.077Z" fill="#F6F6F6"/>
<path d="M56.2521 31.0569L55.8758 9.69043H44.7744L41.5601 28.9087L56.2521 31.0569Z" fill="#F6F6F6"/>
<path d="M110.05 57.676L111.179 53.0452L103.37 38.1912L93.3506 43.1251L96.6904 57.1743L110.05 57.676Z" fill="#F6F6F6"/>
<path d="M42.0464 122.784C42.1666 123.458 42.0464 141.537 42.0464 141.537L56.6496 140.612L54.9718 115.906L42.0464 122.784Z" fill="#F6F6F6"/>
<path d="M90.7589 137.461L89.9854 126.26L115.031 123.04V124.974L112.005 135.276L90.7589 137.461Z" fill="#F6F6F6"/>
<path d="M72.2297 44.5677C72.2297 46.2507 70.8656 47.6201 69.1773 47.6201C67.4944 47.6201 66.125 46.2559 66.125 44.5677C66.125 42.8795 67.4891 41.5154 69.1773 41.5154C70.8656 41.5154 72.2297 42.8848 72.2297 44.5677Z" fill="#09B44D"/>
<g opacity="0.6">
<path opacity="0.6" d="M72.2241 44.437C72.2973 46.1199 70.9906 47.5416 69.3077 47.6148C67.6247 47.6879 66.2031 46.3813 66.1299 44.6983C66.0567 43.0153 67.3634 41.5937 69.0463 41.5205C70.7293 41.4473 72.1562 42.754 72.2241 44.437Z" fill="white"/>
</g>
<path d="M69.1769 46.4912C70.2969 46.4912 71.2048 45.5832 71.2048 44.4632C71.2048 43.3432 70.2969 42.4353 69.1769 42.4353C68.0569 42.4353 67.1489 43.3432 67.1489 44.4632C67.1489 45.5832 68.0569 46.4912 69.1769 46.4912Z" fill="#09B44D"/>
<path d="M116.337 166.427C116.337 167.148 115.751 167.728 115.035 167.728C114.319 167.728 113.734 167.143 113.734 166.427C113.734 165.705 114.319 165.125 115.035 165.125C115.751 165.125 116.337 165.705 116.337 166.427Z" fill="#09B44D"/>
<path d="M114.252 166.003L113.938 158.696L91.9182 159.768C91.3432 159.799 90.7683 159.674 90.2561 159.412L59.027 143.638C58.3057 143.272 57.8301 142.546 57.7883 141.736L53.539 59.2909C53.5181 58.8937 53.6697 58.5122 53.9519 58.2352C54.2342 57.9581 54.6262 57.817 55.0182 57.8432L68.4036 58.8362V44.2017H69.9715V59.0348C69.9715 59.4164 69.8095 59.7875 69.5325 60.0436C69.2503 60.3049 68.874 60.4356 68.4924 60.4094L55.1175 59.4164L59.3563 141.647C59.3667 141.893 59.5131 142.117 59.7378 142.232L90.9669 158.006C91.2387 158.142 91.5418 158.21 91.8502 158.194L114.053 157.113C114.429 157.097 114.779 157.222 115.056 157.473C115.333 157.724 115.49 158.064 115.506 158.44L115.83 165.93L114.252 166.003Z" fill="#09B44D"/>
<path d="M56.09 99.0396C58.2723 99.0396 60.0413 97.2706 60.0413 95.0883C60.0413 92.906 58.2723 91.137 56.09 91.137C53.9077 91.137 52.1387 92.906 52.1387 95.0883C52.1387 97.2706 53.9077 99.0396 56.09 99.0396Z" fill="#09B44D"/>
<path d="M56.0902 97.8322C57.6056 97.8322 58.8342 96.6037 58.8342 95.0882C58.8342 93.5728 57.6056 92.3442 56.0902 92.3442C54.5747 92.3442 53.3462 93.5728 53.3462 95.0882C53.3462 96.6037 54.5747 97.8322 56.0902 97.8322Z" fill="#FAFAFA"/>
<path d="M56.09 98.0309C54.4698 98.0309 53.1475 96.7138 53.1475 95.0883C53.1475 93.4681 54.4646 92.1458 56.09 92.1458C57.7103 92.1458 59.0326 93.4629 59.0326 95.0883C59.0274 96.7086 57.7103 98.0309 56.09 98.0309ZM56.09 92.5377C54.6841 92.5377 53.5395 93.6824 53.5395 95.0883C53.5395 96.4943 54.6841 97.6389 56.09 97.6389C57.496 97.6389 58.6406 96.4943 58.6406 95.0883C58.6354 93.6824 57.496 92.5377 56.09 92.5377Z" fill="#09B44D"/>
<path d="M79.3638 78.5144H60.548C59.6333 78.5144 58.8911 79.2566 58.8911 80.1712V86.9868C58.8911 87.9014 59.6333 88.6436 60.548 88.6436H60.7675V90.2691L62.6491 88.6436H79.3638C80.2785 88.6436 81.0207 87.9014 81.0207 86.9868V80.1712C81.0207 79.2566 80.2785 78.5144 79.3638 78.5144Z" fill="#09B44D"/>
<g opacity="0.4">
<g opacity="0.4">
<path opacity="0.4" d="M79.3638 78.5144H60.548C59.6333 78.5144 58.8911 79.2566 58.8911 80.1712V86.9868C58.8911 87.9014 59.6333 88.6436 60.548 88.6436H60.7675V90.2691L62.6491 88.6436H79.3638C80.2785 88.6436 81.0207 87.9014 81.0207 86.9868V80.1712C81.0207 79.2566 80.2785 78.5144 79.3638 78.5144Z" fill="white"/>
</g>
</g>
<path d="M63.1245 83.4692C63.1245 82.8473 63.6054 82.3821 64.2587 82.3821C64.9068 82.3821 65.3876 82.842 65.3876 83.4692C65.3876 84.0964 64.9068 84.5564 64.2587 84.5564C63.6054 84.5564 63.1245 84.0912 63.1245 83.4692ZM65.0793 83.4692C65.0793 82.9988 64.7291 82.6539 64.2535 82.6539C63.7778 82.6539 63.4224 82.9988 63.4224 83.4692C63.4224 83.9396 63.7726 84.2846 64.2535 84.2846C64.7291 84.2898 65.0793 83.9396 65.0793 83.4692Z" fill="white"/>
<path d="M67.4733 83.7304C67.4733 84.2217 67.1283 84.5562 66.6579 84.5562C66.4227 84.5562 66.2137 84.4674 66.083 84.2844V84.5405H65.8008V82.2878H66.0935V83.1764C66.2294 83.0039 66.428 82.9203 66.6579 82.9203C67.1336 82.9098 67.4733 83.2339 67.4733 83.7304ZM67.1806 83.7304C67.1806 83.3854 66.9454 83.1659 66.637 83.1659C66.3287 83.1659 66.0987 83.3854 66.0987 83.7304C66.0987 84.0754 66.3339 84.3001 66.637 84.3001C66.9454 84.2949 67.1806 84.0701 67.1806 83.7304Z" fill="white"/>
<path d="M67.3213 85.0424L67.4154 84.8176C67.4729 84.8647 67.5565 84.8961 67.6506 84.8961C67.8074 84.8961 67.891 84.7967 67.891 84.6138V82.9256H68.1837V84.6086C68.1837 84.9379 68.0008 85.1417 67.6715 85.1417C67.5408 85.1417 67.4049 85.1103 67.3213 85.0424ZM67.844 82.4239C67.844 82.3193 67.9276 82.2305 68.0426 82.2305C68.1576 82.2305 68.2412 82.3141 68.2412 82.4134C68.2412 82.5232 68.1576 82.6068 68.0426 82.6068C67.9276 82.612 67.844 82.5336 67.844 82.4239Z" fill="white"/>
<path d="M70.1907 83.8244H68.884C68.9206 84.1067 69.1506 84.2948 69.4694 84.2948C69.6575 84.2948 69.8143 84.2321 69.9346 84.1014L70.0966 84.2896C69.9502 84.4621 69.7307 84.5509 69.4589 84.5509C68.9415 84.5509 68.5913 84.206 68.5913 83.7251C68.5913 83.2495 68.9363 82.9045 69.4014 82.9045C69.8666 82.9045 70.1959 83.239 70.1959 83.7356C70.1959 83.7617 70.1959 83.7983 70.1907 83.8244ZM68.884 83.6154H69.9189C69.8875 83.3436 69.6837 83.1554 69.4014 83.1554C69.1244 83.1554 68.9154 83.3436 68.884 83.6154Z" fill="white"/>
<path d="M70.4521 83.7305C70.4521 83.2496 70.8076 82.9099 71.3041 82.9099C71.5915 82.9099 71.832 83.0301 71.9626 83.2549L71.7431 83.396C71.6386 83.2392 71.4818 83.166 71.3041 83.166C70.9905 83.166 70.7501 83.3855 70.7501 83.7305C70.7501 84.0807 70.9853 84.3002 71.3041 84.3002C71.4818 84.3002 71.6386 84.227 71.7431 84.0702L71.9626 84.2113C71.8372 84.4361 71.5968 84.5563 71.3041 84.5563C70.8076 84.5511 70.4521 84.2061 70.4521 83.7305Z" fill="white"/>
<path d="M73.2645 84.4413C73.1757 84.5197 73.045 84.5511 72.9144 84.5511C72.5903 84.5511 72.4022 84.3734 72.4022 84.0493V83.1661H72.1304V82.9256H72.4022V82.5754H72.6948V82.9256H73.1548V83.1661H72.6948V84.0389C72.6948 84.2114 72.7837 84.3107 72.9457 84.3107C73.0294 84.3107 73.113 84.2845 73.1757 84.2323L73.2645 84.4413Z" fill="white"/>
<path d="M73.5625 82.4239C73.5625 82.3193 73.6461 82.2305 73.7611 82.2305C73.8709 82.2305 73.9597 82.3141 73.9597 82.4134C73.9597 82.5232 73.8761 82.6068 73.7611 82.6068C73.6514 82.612 73.5625 82.5336 73.5625 82.4239ZM73.6148 82.9256H73.9075V84.5354H73.6148V82.9256Z" fill="white"/>
<path d="M75.8883 82.9255L75.1827 84.5353H74.8848L74.1792 82.9255H74.4823L75.0364 84.2165L75.6008 82.9255H75.8883Z" fill="white"/>
<path d="M77.5657 83.8244H76.259C76.2956 84.1067 76.5256 84.2948 76.8444 84.2948C77.0325 84.2948 77.1893 84.2321 77.3095 84.1014L77.4716 84.2896C77.3252 84.4621 77.1057 84.5509 76.8339 84.5509C76.3165 84.5509 75.9663 84.206 75.9663 83.7251C75.9663 83.2495 76.3113 82.9045 76.7764 82.9045C77.2416 82.9045 77.5709 83.239 77.5709 83.7356C77.5709 83.7617 77.5709 83.7983 77.5657 83.8244ZM76.259 83.6154H77.2939C77.2625 83.3436 77.0587 83.1554 76.7764 83.1554C76.4942 83.1554 76.2904 83.3436 76.259 83.6154Z" fill="white"/>
<path d="M73.1492 34.3181C73.1492 31.9087 70.9749 30.0114 68.4818 30.4766C66.9138 30.7693 65.6646 32.0498 65.3876 33.623C65.2151 34.6056 65.419 35.5307 65.8685 36.2938L65.8789 36.3095C66.0305 36.5604 66.2187 36.7433 66.4068 37.0099L68.6804 40.0204C68.9626 40.3967 69.5271 40.3967 69.8093 40.0204L72.0411 37.0621C72.0411 37.0621 72.4592 36.5656 72.6108 36.3095L72.6213 36.299C72.9506 35.7137 73.1492 35.0394 73.1492 34.3181ZM69.2396 36.022C68.2884 36.022 67.5201 35.2537 67.5201 34.3025C67.5201 33.3512 68.2884 32.5829 69.2396 32.5829C70.1909 32.5829 70.9592 33.3512 70.9592 34.3025C70.9592 35.2537 70.1909 36.022 69.2396 36.022Z" fill="#09B44D"/>
<path d="M110.949 185.023H97.7201C96.3246 185.023 95.1904 186.157 95.1904 187.552V197.964C95.1904 199.359 96.3246 200.494 97.7201 200.494H98.0546V202.976L100.934 200.494H110.949C112.344 200.494 113.478 199.359 113.478 197.964V187.552C113.484 186.157 112.349 185.023 110.949 185.023Z" fill="#09B44D"/>
<path d="M98.9858 189.8V195.141C98.9858 195.256 99.0799 195.35 99.1949 195.35H110.39C110.505 195.35 110.599 195.256 110.599 195.141L110.573 193.187C110.573 193.145 110.558 193.098 110.531 193.066L108.927 190.918C108.89 190.866 108.828 190.835 108.76 190.835L106.909 190.819C106.794 190.819 106.706 190.725 106.706 190.61V189.805C106.706 189.69 106.612 189.596 106.497 189.596H99.1949C99.0799 189.591 98.9858 189.685 98.9858 189.8Z" fill="#FAFAFA"/>
<path d="M107.223 191.284V192.998C107.223 193.066 107.275 193.119 107.343 193.119L109.815 193.077C109.909 193.077 109.967 192.967 109.909 192.889L108.754 191.185C108.733 191.153 108.691 191.133 108.65 191.133L107.332 191.169C107.275 191.164 107.223 191.216 107.223 191.284Z" fill="#09B44D"/>
<path d="M110.819 195.512H98.7607V195.884H110.819V195.512Z" fill="#FAFAFA"/>
<path d="M102.749 195.654C102.749 196.312 102.215 196.845 101.557 196.845C100.898 196.845 100.365 196.312 100.365 195.654C100.365 194.995 100.898 194.462 101.557 194.462C102.215 194.462 102.749 194.995 102.749 195.654Z" fill="#09B44D"/>
<path d="M102.258 195.653C102.258 196.04 101.944 196.354 101.557 196.354C101.171 196.354 100.857 196.04 100.857 195.653C100.857 195.267 101.171 194.953 101.557 194.953C101.944 194.953 102.258 195.267 102.258 195.653Z" fill="#FAFAFA"/>
<path d="M106.694 195.351C106.663 195.351 106.642 194.06 106.642 192.471C106.642 190.882 106.668 189.591 106.694 189.591C106.726 189.591 106.747 190.877 106.747 192.471C106.747 194.06 106.72 195.351 106.694 195.351Z" fill="#09B44D"/>
<path d="M109.246 195.654C109.246 196.312 108.713 196.845 108.054 196.845C107.395 196.845 106.862 196.312 106.862 195.654C106.862 194.995 107.395 194.462 108.054 194.462C108.713 194.462 109.246 194.995 109.246 195.654Z" fill="#09B44D"/>
<path d="M108.76 195.654C108.76 196.041 108.446 196.354 108.059 196.354C107.672 196.354 107.359 196.041 107.359 195.654C107.359 195.267 107.672 194.953 108.059 194.953C108.441 194.953 108.76 195.267 108.76 195.654Z" fill="#FAFAFA"/>
<path d="M108.059 193.453C108.059 193.485 107.887 193.506 107.678 193.506C107.469 193.506 107.296 193.479 107.296 193.453C107.296 193.422 107.469 193.401 107.678 193.401C107.887 193.396 108.059 193.422 108.059 193.453Z" fill="#09B44D"/>
<path d="M232.792 105.583C232.792 105.583 241.222 107.01 241.902 107.188C242.581 107.371 245.252 108.636 245.388 109.451C245.524 110.266 245.388 112.665 245.388 112.665C245.388 112.665 244.907 113.057 244.604 112.273C244.301 111.489 244.348 109.937 244.348 109.937L242.853 109.362L243.668 110.81L243.804 114.202C243.804 114.202 242.759 114.108 242.56 113.293C242.356 112.482 242.361 111.573 242.361 111.573L241.269 110.648L242.084 111.751L242.361 114.197C242.361 114.197 241.567 114.453 241.316 113.909C241.065 113.366 241.044 111.751 241.044 111.751L237.971 110.679L235.938 111.813L232.138 109.665L232.792 105.583Z" fill="#FFBE9D"/>
<path d="M203.271 84.7446C203.308 84.9119 213.432 98.8461 213.432 98.8461L233.763 105.17L232.838 112.806L207.918 107.789L199.074 97.6387L203.271 84.7446Z" fill="#09B44D"/>
<g opacity="0.2">
<g opacity="0.2">
<path opacity="0.2" d="M203.271 84.7446C203.308 84.9119 213.432 98.8461 213.432 98.8461L233.763 105.17L232.838 112.806L207.918 107.789L199.074 97.6387L203.271 84.7446Z" fill="black"/>
</g>
</g>
<path d="M167.861 112.017H126.32C125.442 112.017 124.726 111.306 124.726 110.423V105.515C124.726 104.637 125.437 103.921 126.32 103.921H167.861C168.74 103.921 169.456 104.632 169.456 105.515V110.423C169.45 111.306 168.74 112.017 167.861 112.017Z" fill="#F5F5F5"/>
<path d="M167.861 112.017C167.861 112.007 167.95 112.012 168.123 111.981C168.29 111.944 168.551 111.876 168.818 111.662C169.079 111.458 169.351 111.097 169.403 110.606C169.424 110.115 169.403 109.529 169.403 108.881C169.398 108.228 169.398 107.507 169.393 106.712C169.393 106.315 169.388 105.902 169.388 105.473C169.377 105.06 169.189 104.642 168.849 104.355C168.682 104.209 168.478 104.104 168.259 104.047C168.039 103.984 167.804 103.994 167.553 103.994C167.057 103.994 166.55 103.999 166.027 103.999C164.976 104.005 163.868 104.005 162.708 104.01C153.389 104.02 140.526 104.036 126.325 104.052C125.918 104.047 125.515 104.229 125.249 104.527C124.972 104.831 124.841 105.228 124.867 105.651C124.867 106.529 124.867 107.402 124.867 108.264C124.867 108.698 124.867 109.127 124.867 109.555V110.198C124.867 110.418 124.867 110.606 124.919 110.799C125.019 111.176 125.28 111.505 125.62 111.693C125.787 111.787 125.975 111.845 126.169 111.866C126.352 111.881 126.576 111.871 126.785 111.876C130.136 111.881 133.366 111.881 136.444 111.886C142.596 111.897 148.141 111.907 152.804 111.918C157.45 111.934 161.213 111.949 163.832 111.96C165.123 111.97 166.131 111.981 166.832 111.986C167.166 111.991 167.422 111.996 167.611 112.001C167.767 112.007 167.861 112.017 167.861 112.017C167.861 112.017 167.773 112.028 167.595 112.033C167.407 112.038 167.151 112.038 166.816 112.048C166.121 112.054 165.112 112.064 163.816 112.075C161.203 112.085 157.434 112.101 152.788 112.116C148.131 112.127 142.586 112.132 136.429 112.148C133.35 112.148 130.12 112.153 126.77 112.158C126.555 112.153 126.362 112.169 126.127 112.148C125.902 112.122 125.677 112.054 125.479 111.944C125.076 111.724 124.768 111.332 124.648 110.888C124.585 110.669 124.585 110.423 124.585 110.219V109.576C124.585 109.148 124.585 108.714 124.585 108.285C124.585 107.418 124.585 106.55 124.585 105.672C124.554 105.223 124.71 104.71 125.034 104.365C125.353 104.01 125.834 103.796 126.315 103.801C140.516 103.817 153.378 103.832 162.698 103.843C163.863 103.848 164.971 103.848 166.016 103.853C166.539 103.853 167.051 103.858 167.543 103.858C167.783 103.858 168.044 103.848 168.285 103.921C168.525 103.989 168.75 104.104 168.933 104.266C169.304 104.585 169.508 105.045 169.513 105.494C169.513 105.923 169.513 106.336 169.508 106.733C169.503 107.522 169.497 108.249 169.497 108.902C169.487 109.555 169.503 110.125 169.471 110.637C169.403 111.155 169.116 111.521 168.839 111.73C168.557 111.944 168.29 112.001 168.118 112.033C167.95 112.033 167.861 112.017 167.861 112.017Z" fill="#263238"/>
<path d="M280.645 215.452C292.434 214.885 301.532 204.869 300.965 193.08C300.398 181.291 290.382 172.193 278.593 172.76C266.804 173.326 257.706 183.343 258.273 195.132C258.839 206.921 268.856 216.018 280.645 215.452Z" fill="#263238"/>
<path d="M258.267 193.762C258.267 193.783 258.262 193.798 258.262 193.819C258.089 205.621 267.518 215.327 279.32 215.494C291.121 215.667 300.827 206.238 300.995 194.436C300.995 194.415 300.995 194.399 300.995 194.378L258.267 193.762Z" fill="#263238"/>
<path d="M264.628 193.908C264.507 202.192 271.13 209.008 279.414 209.128C287.698 209.248 294.513 202.626 294.634 194.342C294.754 186.058 288.132 179.242 279.848 179.122C271.563 179.002 264.748 185.624 264.628 193.908Z" fill="#FAFAFA"/>
<path d="M279.847 179.122C271.563 179.002 264.748 185.624 264.627 193.908L294.634 194.342C294.754 186.058 288.132 179.242 279.847 179.122Z" fill="#F6F6F6"/>
<path d="M270.492 193.992C270.419 199.04 274.454 203.19 279.498 203.264C284.547 203.337 288.697 199.302 288.77 194.258C288.843 189.209 284.808 185.059 279.764 184.986C274.715 184.913 270.565 188.948 270.492 193.992Z" fill="#263238"/>
<path d="M269.488 162.789C269.488 162.789 291.367 156.172 300.419 179.942L254.634 194.122L269.488 162.789Z" fill="#09B44D"/>
<path d="M148.793 215.456C160.582 214.889 169.68 204.873 169.113 193.084C168.547 181.295 158.531 172.197 146.742 172.764C134.952 173.33 125.855 183.347 126.421 195.136C126.988 206.925 137.004 216.022 148.793 215.456Z" fill="#263238"/>
<path d="M126.404 193.761C126.404 193.782 126.398 193.798 126.398 193.819C126.226 205.621 135.655 215.327 147.456 215.494C159.258 215.666 168.964 206.237 169.131 194.436C169.131 194.415 169.131 194.399 169.131 194.378L126.404 193.761Z" fill="#263238"/>
<path d="M132.764 193.908C132.644 202.192 139.266 209.008 147.55 209.128C155.835 209.248 162.65 202.626 162.77 194.342C162.891 186.057 156.268 179.242 147.984 179.122C139.7 179.002 132.885 185.624 132.764 193.908Z" fill="#FAFAFA"/>
<path d="M147.984 179.122C139.7 179.002 132.884 185.624 132.764 193.908L162.77 194.342C162.89 186.057 156.268 179.242 147.984 179.122Z" fill="#F6F6F6"/>
<path d="M138.629 193.992C138.556 199.04 142.591 203.19 147.634 203.264C152.683 203.337 156.833 199.302 156.906 194.258C156.98 189.209 152.945 185.059 147.901 184.986C142.852 184.913 138.702 188.948 138.629 193.992Z" fill="#263238"/>
<path d="M178.169 185.545C178.048 185.608 166.921 183.826 166.921 183.826C165.703 185.415 163.842 186.387 161.846 186.481C157.037 186.711 152.339 186.925 148.267 187.103C144.472 187.27 141.53 190.485 141.687 194.279V194.284C141.838 197.875 144.718 200.745 148.309 200.886L171.975 201.816C175.869 201.968 181.038 199.605 183.468 196.558L178.169 185.545Z" fill="#455A64"/>
<path d="M120.022 176.091C120.022 176.091 119.003 155.262 138.577 150.924V148.253H207.145V154.62C207.145 154.62 197.078 166.74 200.366 176.801C203.654 186.868 204.678 187.892 204.678 187.892H243.7C243.7 187.892 248.425 181.934 248.629 173.106C248.833 164.273 245.163 149.173 242.425 139.52C239.932 130.744 238.358 123.401 238.358 123.401L250.066 119.497C250.066 119.497 271.73 147.82 272.614 149.414C273.497 151.008 276.508 154.724 275.797 162.862C275.091 171.005 255.622 196.135 250.489 198.962C245.357 201.795 240.757 201.973 236.153 202.678C232.16 203.295 202.613 202.887 194.889 202.767C192.202 202.725 189.552 202.041 187.258 200.65C184.947 199.25 183.207 196.929 181.289 193.124L177.217 185.159L120.022 176.091Z" fill="#09B44D"/>
<path d="M125.27 174.643L116.63 188.169C115.522 189.899 117.315 192.079 119.196 191.263C120.111 190.866 121.093 190.249 122.092 189.298C126.043 185.54 133.083 175.641 133.083 175.641L125.27 174.643Z" fill="#455A64"/>
<path d="M187.2 177.078C187.195 177.078 187.21 177.01 187.252 176.88C187.294 176.739 187.352 176.55 187.425 176.31C187.571 175.808 187.749 175.061 187.879 174.078C188.099 172.129 188 169.155 186.541 165.914C185.831 164.299 184.78 162.648 183.358 161.132C181.932 159.627 180.17 158.236 178.111 157.128C176.062 156.015 173.741 155.137 171.264 154.578C168.781 154.018 166.142 153.767 163.44 153.767C160.738 153.767 158.103 154.008 155.574 154.342C153.044 154.682 150.619 155.1 148.33 155.623C143.756 156.653 139.779 158.174 136.7 159.924C133.611 161.665 131.421 163.567 130.052 164.994C129.362 165.705 128.866 166.296 128.536 166.703C128.379 166.897 128.259 167.054 128.165 167.169C128.082 167.273 128.035 167.325 128.029 167.32C128.029 167.32 128.615 166.379 129.974 164.921C131.322 163.463 133.507 161.529 136.601 159.757C139.685 157.97 143.683 156.423 148.272 155.377C150.567 154.849 152.997 154.421 155.537 154.076C158.072 153.736 160.722 153.49 163.44 153.49C166.158 153.49 168.818 153.747 171.321 154.311C173.825 154.876 176.161 155.764 178.231 156.898C180.306 158.022 182.088 159.438 183.526 160.97C184.958 162.512 186.014 164.189 186.719 165.831C188.167 169.118 188.24 172.129 187.984 174.083C187.838 175.071 187.644 175.824 187.477 176.32C187.393 176.556 187.325 176.744 187.278 176.88C187.231 177.016 187.205 177.078 187.2 177.078Z" fill="#263238"/>
<path d="M183.254 172.4C183.223 172.39 183.369 172.071 183.51 171.475C183.672 170.879 183.74 169.975 183.589 168.888C183.437 167.796 183.019 166.536 182.313 165.256C181.968 164.613 181.545 163.975 181.048 163.353C180.562 162.726 179.993 162.13 179.35 161.592C178.059 160.51 176.627 159.747 175.273 159.208C173.909 158.681 172.623 158.367 171.531 158.184C170.438 158.001 169.539 157.923 168.923 157.886C168.301 157.85 167.961 157.834 167.961 157.813C167.961 157.802 168.045 157.797 168.212 157.787C168.374 157.782 168.619 157.771 168.928 157.776C169.55 157.782 170.454 157.829 171.562 157.991C172.67 158.147 173.977 158.445 175.367 158.968C176.747 159.506 178.21 160.275 179.527 161.377C180.186 161.932 180.766 162.538 181.263 163.181C181.764 163.813 182.193 164.472 182.538 165.13C183.244 166.437 183.651 167.733 183.782 168.857C183.913 169.975 183.813 170.9 183.615 171.496C183.552 171.805 183.421 172.019 183.364 172.176C183.301 172.327 183.259 172.406 183.254 172.4Z" fill="#F5F5F5"/>
<g opacity="0.4">
<g opacity="0.4">
<g opacity="0.4">
<path opacity="0.4" d="M169.827 154.154C173.658 154.886 177.008 156.26 180.149 158.356C183.29 160.452 185.7 163.426 187.064 166.949C188.433 170.472 188.23 175.139 186.787 178.055L191.632 178.458C193.263 173.017 191.486 166.343 187.566 162.083C182.972 157.086 176.647 154.154 169.827 154.154Z" fill="black"/>
</g>
</g>
</g>
<path d="M168.28 148.253H125.897C123.42 148.253 121.413 146.246 121.413 143.769V116.094C121.413 113.616 123.42 111.609 125.897 111.609H168.28C170.757 111.609 172.764 113.616 172.764 116.094V143.769C172.764 146.246 170.757 148.253 168.28 148.253Z" fill="#455A64"/>
<path d="M172.764 119.784C172.764 119.857 161.218 119.92 146.981 119.92C132.738 119.92 121.192 119.857 121.192 119.784C121.192 119.711 132.738 119.648 146.981 119.648C161.218 119.648 172.764 119.711 172.764 119.784Z" fill="#263238"/>
<path d="M207.113 150.679C207.113 150.752 191.705 150.815 172.696 150.815C153.681 150.815 138.278 150.752 138.278 150.679C138.278 150.605 153.686 150.543 172.696 150.543C191.7 150.543 207.113 150.605 207.113 150.679Z" fill="#4CCD7F"/>
<path d="M207.145 148.253C207.145 148.253 208.274 146.905 208.383 145.18C208.493 143.455 207.704 141.307 205.854 141.307H182.177C178.341 141.307 175.231 144.417 175.231 148.253H207.145Z" fill="#455A64"/>
<path d="M238.368 123.401L234.25 114.813C233.126 112.372 234.02 109.472 236.33 108.097L248.644 100.754C249.287 100.372 250.024 100.168 250.771 100.168H253.432L254.498 117.526L250.395 119.094L252.993 123.317L238.368 123.401Z" fill="#09B44D"/>
<path d="M253.474 100.796C253.474 100.796 257.686 101.763 258.214 108.254C258.742 114.751 254.498 116.768 254.498 116.768L253.474 100.796Z" fill="#F6F6F6"/>
<path d="M239.801 111.447C239.801 111.447 231.287 115.482 230.247 116.146C229.525 116.606 228.909 117.411 229.473 118.827C230.44 121.242 234.417 118.968 234.417 118.968L242.341 115.007C242.341 115.007 245.388 113.569 244.264 111.766C243.005 109.754 239.801 111.447 239.801 111.447Z" fill="#263238"/>
<path d="M227.748 109.979C227.748 109.979 235.745 111.348 236.424 111.531C237.104 111.714 239.774 112.979 239.91 113.794C240.046 114.61 239.91 117.009 239.91 117.009C239.91 117.009 239.429 117.401 239.126 116.617C238.823 115.833 238.87 114.28 238.87 114.28L237.375 113.705L238.191 115.153L238.327 118.545C238.327 118.545 237.281 118.451 237.083 117.636C236.879 116.826 236.884 115.916 236.884 115.916L235.797 114.991L236.612 116.094L236.889 118.54C236.889 118.54 236.095 118.796 235.844 118.253C235.593 117.709 235.572 116.094 235.572 116.094L232.499 115.022L230.466 116.157L227.267 114.406L227.748 109.979Z" fill="#FFBE9D"/>
<path d="M240.208 98.8355C240.208 102.076 238.719 104.7 236.884 104.7C235.05 104.7 233.56 102.076 233.56 98.8355C233.56 95.595 235.05 92.9712 236.884 92.9712C238.719 92.9712 240.208 95.6002 240.208 98.8355Z" fill="#263238"/>
<path d="M237.428 102.865L239.252 109.195C240.068 108.782 240.24 107.967 240.104 107.324C239.644 105.155 239.388 103.613 238.881 101.71C238.824 101.527 237.428 102.865 237.428 102.865Z" fill="#263238"/>
<g opacity="0.4">
<g opacity="0.4">
<path opacity="0.4" d="M201.27 179.509C201.087 178.986 200.904 178.453 200.732 177.904C200.57 177.392 200.376 176.864 200.24 176.357C199.99 175.447 199.843 174.512 199.786 173.974C196.702 186.528 201.411 195.366 209.492 195.988C221.299 196.898 235.698 197.556 241.52 196.03C252.136 193.244 256.029 184.395 256.96 182.932C257.89 181.474 266.331 166.04 261.157 151.18C255.982 136.321 246.961 120.542 246.961 120.542L238.363 123.406C238.363 123.406 239.937 130.744 242.43 139.525C245.169 149.178 248.838 164.278 248.634 173.111C248.43 181.944 243.705 187.897 243.705 187.897H204.683C204.683 187.892 203.847 187.056 201.27 179.509Z" fill="black"/>
</g>
</g>
<path d="M118.464 172.824L118.741 169.844L189.97 178.05C193.989 178.521 196.785 182.279 196.08 186.267L195.761 188.07L122.039 177.355C119.828 177.036 118.26 175.045 118.464 172.824Z" fill="#09B44D"/>
<g opacity="0.6">
<g opacity="0.6">
<path opacity="0.6" d="M118.464 172.824L118.741 169.844L189.97 178.05C193.989 178.521 196.785 182.279 196.08 186.267L195.761 188.07L122.039 177.355C119.828 177.036 118.26 175.045 118.464 172.824Z" fill="black"/>
</g>
</g>
<g opacity="0.3">
<g opacity="0.3">
<g opacity="0.3">
<path opacity="0.3" d="M256.959 192.748C256.959 192.748 272.639 175.5 275.875 161.942C276.962 161.931 279.491 162.041 280.73 162.302C280.73 162.302 271.458 187.511 256.959 192.748Z" fill="black"/>
</g>
</g>
</g>
<path d="M275.645 155.869C275.655 155.869 275.681 156.015 275.728 156.302C275.77 156.59 275.854 157.013 275.906 157.562C276.005 158.66 276.073 160.28 275.786 162.245C275.503 164.21 274.829 166.5 273.716 168.873C272.629 171.256 271.124 173.718 269.566 176.294C266.425 181.463 262.928 185.687 260.388 188.708C259.113 190.213 258.057 191.415 257.325 192.246C256.97 192.643 256.688 192.957 256.478 193.192C256.28 193.406 256.175 193.516 256.17 193.511C256.165 193.506 256.254 193.385 256.437 193.155C256.635 192.915 256.907 192.586 257.247 192.173C257.973 191.305 258.987 190.082 260.242 188.582C262.745 185.535 266.205 181.296 269.336 176.153C270.899 173.576 272.399 171.13 273.491 168.768C274.61 166.416 275.294 164.158 275.598 162.219C275.911 160.275 275.875 158.675 275.801 157.578C275.765 157.029 275.697 156.606 275.676 156.313C275.645 156.02 275.634 155.869 275.645 155.869Z" fill="#263238"/>
<path d="M248.54 192.622C248.488 192.674 247.364 191.66 246.031 190.354C244.698 189.047 243.658 187.944 243.71 187.892C243.763 187.84 244.886 188.854 246.224 190.16C247.552 191.467 248.592 192.57 248.54 192.622Z" fill="#263238"/>
<path d="M202.002 192.094C201.939 192.063 202.368 191.012 203.152 189.863C203.93 188.707 204.751 187.918 204.798 187.97C204.855 188.023 204.139 188.88 203.376 190.019C202.608 191.148 202.075 192.126 202.002 192.094Z" fill="#263238"/>
<path d="M171.875 202.051C171.813 201.999 172.999 201.241 174.013 199.333C174.52 198.392 174.933 197.164 175.063 195.753C175.194 194.352 174.99 192.763 174.3 191.289C173.584 189.826 172.482 188.671 171.311 187.887C170.135 187.098 168.922 186.648 167.872 186.449C165.75 186.037 164.417 186.486 164.412 186.402C164.412 186.392 164.49 186.371 164.647 186.335C164.804 186.303 165.028 186.23 165.331 186.204C165.933 186.11 166.826 186.084 167.903 186.267C168.98 186.444 170.234 186.889 171.447 187.683C172.659 188.472 173.804 189.659 174.541 191.174C175.252 192.701 175.45 194.336 175.304 195.779C175.163 197.222 174.713 198.476 174.175 199.427C173.642 200.378 173.056 201.058 172.602 201.466C172.387 201.685 172.189 201.811 172.063 201.915C171.954 202.009 171.88 202.056 171.875 202.051Z" fill="#263238"/>
<path d="M145.868 196.589C145.794 196.595 145.679 195.466 145.611 194.075C145.544 192.685 145.554 191.556 145.627 191.551C145.7 191.546 145.815 192.669 145.883 194.065C145.946 195.455 145.941 196.584 145.868 196.589Z" fill="#263238"/>
<path d="M147.755 196.594C147.682 196.605 147.478 195.481 147.3 194.091C147.122 192.695 147.039 191.561 147.112 191.551C147.185 191.54 147.389 192.664 147.567 194.059C147.744 195.444 147.828 196.584 147.755 196.594Z" fill="#263238"/>
<path d="M177.133 148.253C177.133 148.326 168.473 148.389 157.795 148.389C147.112 148.389 138.451 148.326 138.451 148.253C138.451 148.18 147.112 148.117 157.795 148.117C168.473 148.117 177.133 148.175 177.133 148.253Z" fill="#263238"/>
<path d="M149.088 148.227C149.014 148.227 148.952 138.307 148.952 126.077C148.952 113.841 149.014 103.921 149.088 103.921C149.161 103.921 149.223 113.836 149.223 126.077C149.223 138.307 149.161 148.227 149.088 148.227Z" fill="#263238"/>
<path d="M143.782 148.191C143.709 148.185 144.08 138.276 144.608 126.051C145.141 113.826 145.632 103.916 145.706 103.921C145.779 103.926 145.408 113.836 144.88 126.061C144.352 138.286 143.861 148.196 143.782 148.191Z" fill="#263238"/>
<path d="M131.787 208.637C131.782 208.642 131.704 208.563 131.557 208.407C131.416 208.245 131.197 208.02 130.946 207.701C130.428 207.079 129.739 206.128 129.017 204.868C127.575 202.375 126.143 198.476 126.158 194.018C126.179 189.554 127.643 185.671 129.106 183.188C129.838 181.934 130.538 180.988 131.056 180.371C131.307 180.052 131.531 179.833 131.672 179.671C131.819 179.514 131.897 179.435 131.902 179.441C131.908 179.446 131.845 179.54 131.714 179.707C131.589 179.88 131.375 180.11 131.139 180.434C130.648 181.071 129.974 182.028 129.273 183.282C127.862 185.77 126.446 189.612 126.43 194.018C126.414 198.419 127.794 202.276 129.185 204.774C129.874 206.034 130.538 206.995 131.03 207.638C131.265 207.968 131.474 208.203 131.599 208.37C131.73 208.537 131.798 208.626 131.787 208.637Z" fill="#455A64"/>
<path d="M206.664 168.815L206.502 169.123L203.356 175.045L198.944 179.294L207.762 191.033L215.11 189.815C215.11 189.815 214.285 188.138 210.6 187.813L209.189 180.799L214.368 172.771" fill="#455A64"/>
<path d="M198.943 179.289L207.761 191.028L215.104 189.81L214.095 188.843L208.069 189.502L199.884 178.385L198.943 179.289Z" fill="#E0E0E0"/>
<path d="M210.008 184.584C209.966 184.667 209.501 184.5 208.937 184.61C208.367 184.704 207.996 185.028 207.923 184.96C207.844 184.918 208.184 184.406 208.874 184.286C209.569 184.155 210.066 184.516 210.008 184.584Z" fill="#263238"/>
<path d="M209.601 182.853C209.538 182.916 209.135 182.54 208.534 182.524C207.928 182.503 207.505 182.853 207.447 182.785C207.416 182.754 207.479 182.618 207.667 182.472C207.85 182.326 208.168 182.184 208.545 182.195C208.921 182.205 209.229 182.367 209.402 182.529C209.58 182.686 209.632 182.827 209.601 182.853Z" fill="#263238"/>
<path d="M209.276 180.596C209.203 180.648 208.879 180.266 208.341 180.177C207.802 180.078 207.369 180.329 207.316 180.251C207.29 180.219 207.369 180.099 207.557 179.989C207.745 179.879 208.053 179.791 208.398 179.853C208.738 179.916 208.999 180.099 209.141 180.266C209.282 180.439 209.313 180.575 209.276 180.596Z" fill="#263238"/>
<path d="M210.949 178.531C210.866 178.578 210.588 178.191 210.087 177.972C209.59 177.737 209.12 177.784 209.099 177.695C209.062 177.616 209.606 177.392 210.223 177.674C210.839 177.946 211.038 178.505 210.949 178.531Z" fill="#263238"/>
<path d="M211.659 176.864C211.628 176.895 211.335 176.639 210.891 176.2C210.64 175.944 210.384 175.682 210.123 175.421C209.987 175.264 209.814 175.139 209.684 174.883C209.621 174.752 209.6 174.59 209.652 174.428C209.699 174.261 209.893 174.125 210.055 174.125C210.384 174.12 210.588 174.256 210.802 174.365C211.006 174.491 211.184 174.642 211.335 174.799C211.633 175.123 211.806 175.484 211.894 175.797C212.072 176.435 211.921 176.843 211.894 176.827C211.837 176.822 211.894 176.43 211.675 175.871C211.565 175.594 211.387 175.285 211.116 175.008C210.98 174.872 210.818 174.747 210.64 174.642C210.468 174.543 210.243 174.439 210.086 174.449C210.013 174.459 209.981 174.486 209.961 174.538C209.94 174.595 209.945 174.679 209.976 174.747C210.044 174.898 210.211 175.055 210.347 175.212C210.593 175.494 210.828 175.766 211.063 176.038C211.461 176.519 211.691 176.832 211.659 176.864Z" fill="#263238"/>
<path d="M211.958 177.036C211.921 177.042 211.885 176.65 212.209 176.143C212.527 175.662 213.301 175.071 214.32 175.39C214.399 175.437 214.466 175.531 214.477 175.636C214.487 175.74 214.461 175.818 214.425 175.881C214.357 176.012 214.268 176.08 214.2 176.158C214.048 176.305 213.892 176.435 213.729 176.54C213.411 176.754 213.087 176.89 212.81 176.968C212.25 177.125 211.884 177.073 211.89 177.036C211.884 176.984 212.235 176.953 212.736 176.749C212.987 176.65 213.275 176.503 213.557 176.289C213.698 176.184 213.839 176.064 213.975 175.928C214.043 175.855 214.111 175.787 214.137 175.73C214.163 175.662 214.158 175.677 214.142 175.662C214.116 175.641 214.012 175.625 213.918 175.62C213.824 175.615 213.729 175.615 213.641 175.625C213.458 175.641 213.285 175.688 213.123 175.751C212.804 175.876 212.564 176.08 212.397 176.284C212.062 176.691 212.01 177.047 211.958 177.036Z" fill="#263238"/>
<path d="M204.766 178.092C204.844 178.573 204.52 179.028 204.039 179.111C203.558 179.19 203.104 178.866 203.02 178.385C202.942 177.904 203.266 177.449 203.746 177.365C204.233 177.287 204.687 177.611 204.766 178.092Z" fill="#E0E0E0"/>
<path d="M233.424 174.46L235.781 189.763L254.837 186.93C254.456 185.127 244.05 182.937 244.05 182.937L242.942 173.069L233.424 174.46Z" fill="#455A64"/>
<path d="M238.039 182.99C237.684 183.146 237.49 183.596 237.631 183.956C237.772 184.317 238.232 184.516 238.588 184.369C238.943 184.218 239.194 183.685 239.011 183.34C238.828 183 238.279 182.791 237.971 183.021" fill="#E0E0E0"/>
<path d="M235.781 189.763L235.604 188.211L253.944 186.073C253.944 186.073 254.848 186.314 254.843 186.93L235.781 189.763Z" fill="#E0E0E0"/>
<path d="M244.348 182.796C244.358 182.89 243.898 183 243.485 183.371C243.062 183.726 242.884 184.165 242.795 184.139C242.706 184.134 242.764 183.559 243.271 183.12C243.778 182.681 244.358 182.707 244.348 182.796Z" fill="#263238"/>
<path d="M246.469 183.324C246.506 183.413 246.124 183.627 245.868 184.071C245.596 184.505 245.581 184.944 245.487 184.949C245.403 184.976 245.257 184.442 245.586 183.899C245.915 183.355 246.453 183.235 246.469 183.324Z" fill="#263238"/>
<path d="M247.964 185.546C247.881 185.577 247.682 185.133 247.849 184.589C248.006 184.04 248.419 183.774 248.466 183.847C248.529 183.915 248.288 184.234 248.163 184.683C248.022 185.127 248.053 185.525 247.964 185.546Z" fill="#263238"/>
<path d="M243.846 180.575C243.82 180.664 243.376 180.601 242.853 180.716C242.33 180.82 241.949 181.056 241.886 180.982C241.823 180.925 242.168 180.517 242.785 180.392C243.402 180.261 243.883 180.491 243.846 180.575Z" fill="#263238"/>
<path d="M243.057 178.38C243.062 178.416 242.706 178.531 242.1 178.515C241.802 178.51 241.442 178.463 241.055 178.359C240.861 178.306 240.663 178.238 240.464 178.15C240.37 178.108 240.255 178.066 240.14 177.967C240.02 177.883 239.926 177.648 240.025 177.481C240.103 177.319 240.266 177.23 240.401 177.209C240.543 177.183 240.657 177.193 240.767 177.204C240.987 177.224 241.196 177.266 241.389 177.319C241.776 177.428 242.105 177.596 242.356 177.763C242.858 178.108 243.062 178.432 243.03 178.453C242.994 178.489 242.732 178.228 242.236 177.961C241.985 177.826 241.671 177.695 241.311 177.606C241.128 177.564 240.94 177.533 240.736 177.517C240.527 177.496 240.354 177.517 240.318 177.616C240.302 177.653 240.302 177.669 240.354 177.721C240.407 177.768 240.495 177.81 240.59 177.852C240.773 177.935 240.961 178.008 241.138 178.066C241.494 178.181 241.828 178.249 242.116 178.28C242.685 178.359 243.051 178.327 243.057 178.38Z" fill="#263238"/>
<path d="M242.957 178.531C242.926 178.552 242.691 178.244 242.571 177.648C242.508 177.35 242.487 176.984 242.544 176.582C242.576 176.383 242.623 176.174 242.701 175.965C242.785 175.761 242.884 175.489 243.24 175.39C243.428 175.353 243.605 175.479 243.679 175.599C243.762 175.719 243.788 175.829 243.83 175.934C243.898 176.153 243.924 176.367 243.924 176.576C243.924 176.989 243.809 177.355 243.663 177.622C243.365 178.171 242.994 178.338 242.978 178.312C242.942 178.27 243.24 178.04 243.454 177.522C243.558 177.266 243.637 176.942 243.621 176.582C243.616 176.404 243.585 176.216 243.522 176.033C243.464 175.834 243.36 175.683 243.287 175.714C243.193 175.725 243.051 175.902 242.999 176.075C242.926 176.258 242.874 176.446 242.837 176.629C242.769 176.989 242.764 177.329 242.795 177.606C242.853 178.176 243.004 178.51 242.957 178.531Z" fill="#263238"/>
<path d="M218.429 138.511L202.085 174.125L212.878 180.601L235.478 137.753" fill="#263238"/>
<path d="M245.382 181.416L233.654 183.298L226.634 141.412L191.955 143.926C191.036 143.983 190.111 143.905 189.222 143.659C179.48 140.988 180.802 128.575 181.737 126.584L229.723 125.204C234.929 125.052 239.413 128.842 240.135 134L245.382 181.416Z" fill="#263238"/>
<path d="M181.268 128.554L181.44 110.846C181.44 110.846 179.156 99.3321 178.476 94.8059C177.426 87.7761 175.989 84.4415 187.498 79.4448L190.012 78.4727L193.905 78.5249C198.552 78.8751 203.444 83.0721 203.554 85.8579L208.033 125.763L181.268 128.554Z" fill="#09B44D"/>
<path d="M181.988 83.5632C181.988 83.5632 178.743 90.5565 179.391 96.9277L191.501 108.552C194.219 111.573 197.611 112.858 201.954 113.12L227.011 115.859L227.706 109.304L203.867 102.552C202.921 102.379 202.445 101.386 201.719 100.754L181.988 83.5632Z" fill="#09B44D"/>
<path d="M180.029 85.5809C180.029 85.5809 180.165 85.4294 180.51 85.2569C180.855 85.0896 181.398 84.9171 182.13 84.8022C182.856 84.6976 183.776 84.6192 184.837 84.8074C185.099 84.8701 185.376 84.9328 185.632 85.0792C185.883 85.2255 186.123 85.398 186.369 85.5809C186.855 85.9573 187.341 86.3858 187.832 86.8615C188.836 87.797 189.787 88.9835 190.9 90.1856C192.008 91.3929 193.231 92.6787 194.559 94.0324C195.881 95.3861 197.308 96.8025 198.839 98.266C199.608 98.9925 200.397 99.7346 201.233 100.461C201.657 100.811 202.075 101.219 202.477 101.601C202.885 101.977 203.35 102.327 203.883 102.426H203.888H203.894C210.981 104.428 219.114 106.728 227.732 109.169L227.842 109.2L227.832 109.315C227.784 109.78 227.727 110.282 227.675 110.784C227.492 112.524 227.309 114.249 227.136 115.869L227.121 116.005L226.985 115.989C223.342 115.587 219.793 115.2 216.38 114.824C214.671 114.636 212.998 114.453 211.362 114.27C209.721 114.103 208.122 113.941 206.559 113.784C204.996 113.611 203.481 113.434 202.012 113.219C200.543 113.005 199.116 112.733 197.805 112.242C196.487 111.761 195.311 111.071 194.256 110.339C193.195 109.603 192.233 108.834 191.329 108.076C187.749 105.019 185.12 102.29 183.295 100.43C182.391 99.4942 181.696 98.7573 181.231 98.2555C181.006 98.0099 180.834 97.8165 180.708 97.6806C180.593 97.5499 180.536 97.4767 180.536 97.4767C180.536 97.4767 180.604 97.5342 180.724 97.6597C180.855 97.7903 181.032 97.9785 181.268 98.2189C181.754 98.7154 182.459 99.4367 183.363 100.362C185.208 102.202 187.858 104.909 191.444 107.94C192.348 108.688 193.315 109.451 194.371 110.177C195.421 110.904 196.582 111.578 197.878 112.043C199.174 112.524 200.58 112.786 202.049 112.995C203.512 113.204 205.028 113.381 206.591 113.549C208.153 113.705 209.753 113.862 211.394 114.024C213.03 114.202 214.707 114.385 216.411 114.568C219.824 114.939 223.373 115.326 227.021 115.723L226.87 115.843C227.042 114.223 227.225 112.498 227.408 110.758C227.46 110.256 227.513 109.754 227.565 109.289L227.664 109.435C219.046 106.989 210.918 104.679 203.831 102.667L203.841 102.672C203.225 102.557 202.733 102.17 202.315 101.783C201.892 101.381 201.51 101.005 201.076 100.644C200.24 99.9123 199.446 99.1649 198.677 98.4332C197.151 96.9645 195.73 95.5377 194.407 94.1787C193.09 92.8198 191.872 91.5288 190.764 90.311C189.651 89.0985 188.715 87.912 187.728 86.9764C187.242 86.5008 186.761 86.067 186.285 85.6959C186.045 85.513 185.809 85.3353 185.569 85.1942C185.334 85.053 185.062 84.9903 184.811 84.9276C183.776 84.729 182.856 84.7969 182.135 84.8858C181.409 84.9851 180.865 85.1419 180.52 85.2987C180.18 85.4503 180.039 85.5914 180.029 85.5809Z" fill="#263238"/>
<path d="M186.286 63.117L187.504 80.3544C187.703 83.1663 190.044 85.351 192.867 85.351C195.971 85.351 198.433 82.722 198.229 79.6227C198.119 77.9815 198.025 76.6382 198.025 76.6382C198.025 76.6382 202.196 75.9901 202.248 71.8193C202.28 69.4098 201.862 63.9428 201.506 59.751C201.266 56.9182 198.893 54.7439 196.05 54.7439H193.53C189.187 55 185.91 58.7893 186.286 63.117Z" fill="#FFBE9D"/>
<path d="M198.024 76.5808C198.024 76.5808 195.385 76.7951 192.583 75.0337C192.583 75.0337 193.869 78.039 198.035 77.6627L198.024 76.5808Z" fill="#EB996E"/>
<path d="M200.565 65.1135C200.575 65.4271 200.319 65.6989 199.99 65.7146C199.66 65.7303 199.389 65.4899 199.373 65.1763C199.362 64.8627 199.619 64.5909 199.948 64.5752C200.277 64.5595 200.549 64.7999 200.565 65.1135Z" fill="#263238"/>
<path d="M200.784 63.9375C200.711 64.0159 200.261 63.6814 199.619 63.6814C198.976 63.6762 198.505 64.0054 198.437 63.927C198.401 63.8905 198.479 63.7546 198.683 63.603C198.887 63.4566 199.227 63.3103 199.629 63.3103C200.026 63.3103 200.366 63.4619 200.559 63.6082C200.753 63.7598 200.821 63.9009 200.784 63.9375Z" fill="#263238"/>
<path d="M194.544 65.1135C194.554 65.4271 194.298 65.6989 193.969 65.7146C193.64 65.7303 193.368 65.4899 193.352 65.1763C193.342 64.8627 193.598 64.5909 193.927 64.5752C194.257 64.5595 194.534 64.7999 194.544 65.1135Z" fill="#263238"/>
<path d="M194.481 64.0576C194.408 64.136 193.953 63.8015 193.315 63.8015C192.673 63.7963 192.202 64.1256 192.134 64.0472C192.098 64.0106 192.176 63.8747 192.38 63.7231C192.584 63.5768 192.923 63.4304 193.326 63.4304C193.723 63.4304 194.063 63.582 194.256 63.7283C194.45 63.8799 194.518 64.021 194.481 64.0576Z" fill="#263238"/>
<path d="M196.807 68.814C196.801 68.7774 197.204 68.7095 197.847 68.6258C198.009 68.6102 198.166 68.5788 198.192 68.4638C198.228 68.3436 198.16 68.1711 198.082 67.9777C197.93 67.5805 197.768 67.1676 197.596 66.7286C196.922 64.9515 196.436 63.4933 196.509 63.4672C196.582 63.441 197.183 64.8574 197.857 66.6345C198.019 67.0735 198.176 67.4917 198.322 67.8889C198.385 68.077 198.49 68.2861 198.406 68.5318C198.364 68.652 198.244 68.7408 198.139 68.7722C198.035 68.8035 197.941 68.8035 197.862 68.8088C197.209 68.8454 196.807 68.8506 196.807 68.814Z" fill="#263238"/>
<path d="M194.919 69.2582C195.024 69.2529 195.024 69.9481 195.62 70.4394C196.216 70.9359 196.958 70.8575 196.963 70.9516C196.974 70.9934 196.796 71.0875 196.482 71.0979C196.174 71.1084 195.724 71.0091 195.364 70.7059C194.998 70.4028 194.846 70.0004 194.82 69.7129C194.794 69.4254 194.872 69.2529 194.919 69.2582Z" fill="#263238"/>
<path d="M194.643 61.5437C194.581 61.7162 193.938 61.6378 193.185 61.7267C192.433 61.7998 191.826 62.0246 191.727 61.8678C191.68 61.7946 191.79 61.6274 192.035 61.4601C192.276 61.2928 192.668 61.1308 193.117 61.0786C193.567 61.0315 193.985 61.0995 194.257 61.2144C194.534 61.3242 194.675 61.4601 194.643 61.5437Z" fill="#263238"/>
<path d="M200.545 62.0821C200.43 62.2284 199.991 62.0768 199.458 62.0716C198.924 62.0455 198.475 62.1709 198.376 62.0193C198.329 61.9462 198.402 61.7998 198.595 61.6639C198.789 61.528 199.113 61.4131 199.478 61.4235C199.844 61.434 200.158 61.5646 200.346 61.7162C200.534 61.8625 200.597 62.0089 200.545 62.0821Z" fill="#263238"/>
<path d="M187.692 66.2528C187.619 66.2215 184.822 65.4061 184.916 68.2598C185.005 71.1136 187.854 70.4341 187.854 70.3505C187.854 70.2616 187.692 66.2528 187.692 66.2528Z" fill="#FFBE9D"/>
<path d="M186.945 69.2947C186.934 69.2843 186.898 69.3313 186.814 69.3731C186.736 69.415 186.595 69.4411 186.443 69.394C186.14 69.2947 185.868 68.8243 185.837 68.3069C185.821 68.0456 185.868 67.7999 185.952 67.5909C186.03 67.3818 186.161 67.2302 186.312 67.1989C186.464 67.1571 186.574 67.2459 186.61 67.3243C186.652 67.4027 186.636 67.4602 186.652 67.4654C186.663 67.4706 186.71 67.4132 186.683 67.2982C186.668 67.2407 186.636 67.178 186.563 67.1205C186.495 67.0682 186.391 67.0421 186.286 67.0577C186.067 67.0786 185.873 67.2877 185.779 67.5177C185.675 67.7477 185.617 68.0247 185.633 68.3174C185.67 68.8923 185.983 69.4202 186.396 69.5247C186.6 69.5718 186.762 69.5038 186.846 69.4359C186.945 69.3627 186.955 69.3 186.945 69.2947Z" fill="#EB996E"/>
<path d="M186.103 66.1536C186.537 66.0491 187.289 66.4515 187.477 66.8592C187.665 67.2669 187.702 67.7268 187.89 68.1345C188.073 68.5422 188.491 68.9133 188.93 68.8088C189.228 68.7356 189.448 68.4586 189.526 68.1554C189.605 67.8575 189.573 67.5439 189.537 67.2355C189.369 65.9027 189.087 64.5804 189.035 63.2424C188.983 61.8991 189.171 60.5089 189.876 59.3642C190.582 58.2196 191.873 57.3781 193.211 57.4879C194.099 57.5611 194.91 58.021 195.793 58.1464C196.838 58.2928 197.941 57.9217 198.688 57.1795C198.783 57.0854 199.232 56.7927 199.232 56.7927C199.232 56.7248 199.169 56.129 198.934 55.9094C197.188 54.2944 194.037 53.8449 191.732 54.4251C189.422 55.0052 187.258 56.6359 186.265 58.7998C185.261 60.9584 185.554 63.9637 186.103 66.1536Z" fill="#263238"/>
<path d="M201.547 59.1081C201.547 59.1081 190.602 55.5853 185.867 65.056C185.867 65.056 185.161 62.6883 185.161 61.4182C185.161 60.5715 185.668 55.5174 190.869 53.9285C190.863 53.9285 198.698 50.9388 201.547 59.1081Z" fill="#09B44D"/>
<path d="M192.139 59.3433C192.526 59.9705 193.216 60.3938 193.948 60.4618C194.679 60.5297 195.437 60.2318 195.929 59.6883C196.143 60.2266 196.723 60.5977 197.303 60.5663C197.883 60.535 198.422 60.1064 198.578 59.5471C198.897 59.8555 199.227 60.1743 199.645 60.3259C200.063 60.4775 200.585 60.42 200.862 60.0698C201.139 59.7144 201.061 59.176 200.789 58.8154C200.518 58.4548 200.094 58.2405 199.681 58.068C198.38 57.5244 196.948 57.2526 195.552 57.4408C194.157 57.629 192.803 58.3084 191.93 59.4112" fill="#263238"/>
<g opacity="0.4">
<g opacity="0.4">
<g opacity="0.4">
<g opacity="0.4">
<path opacity="0.4" d="M201.547 59.108C201.547 59.108 200.303 57.6237 198.066 57.5296C194.836 57.3885 188.794 59.2021 185.867 65.0612C185.867 65.0612 185.161 62.6935 185.161 61.4234C185.161 60.5767 185.668 55.5226 190.869 53.9337C190.863 53.9284 198.698 50.9388 201.547 59.108Z" fill="black"/>
</g>
</g>
</g>
</g>
<path d="M186.322 63.948C187.947 61.4653 190.184 59.4113 192.698 57.838C195.212 56.2648 199.373 54.7125 202.242 53.9494C203.104 53.7195 203.998 53.5208 204.876 53.6724C205.754 53.824 206.612 54.4094 206.831 55.2718C207.103 56.3537 205.185 58.021 204.286 58.6743C203.387 59.3329 201.547 60.2946 201.547 60.2946C201.547 60.2946 201.573 58.2875 198.364 57.8746C194 57.3206 186.322 63.948 186.322 63.948Z" fill="#09B44D"/>
<g opacity="0.3">
<g opacity="0.3">
<g opacity="0.3">
<path opacity="0.3" d="M182.47 99.5151C183.599 102.238 184.738 105.599 186.374 108.05C188.01 110.502 190.195 112.676 192.918 113.815C196.331 115.242 200.371 115.477 203.768 114.009C204.045 113.888 204.589 113.737 204.537 113.439C204.537 113.439 203.413 113.313 203.063 113.256C196.195 112.096 195.453 111.249 192.165 108.651C190.116 107.036 185.574 102.139 182.47 99.5151Z" fill="black"/>
</g>
</g>
</g>
<path d="M204.296 119.345C204.312 119.35 204.223 119.585 204.009 119.983C203.8 120.38 203.439 120.929 202.901 121.53C201.834 122.742 199.942 124.054 197.585 124.781C195.228 125.507 192.991 125.638 191.397 125.706C190.597 125.737 189.949 125.742 189.505 125.742C189.055 125.742 188.81 125.732 188.81 125.711C188.81 125.69 189.055 125.669 189.499 125.638C190.001 125.607 190.634 125.565 191.386 125.518C192.97 125.403 195.186 125.235 197.507 124.525C199.822 123.809 201.688 122.554 202.765 121.399C203.857 120.249 204.244 119.314 204.296 119.345Z" fill="#263238"/>
<path d="M233.863 184.547C233.858 184.547 233.842 184.495 233.821 184.385C233.795 184.26 233.763 184.103 233.727 183.904C233.648 183.465 233.533 182.843 233.392 182.049C233.11 180.418 232.702 178.092 232.206 175.223C231.229 169.442 229.88 161.482 228.39 152.691C227.727 148.713 227.094 144.903 226.514 141.427L226.65 141.532C220.561 141.976 215.35 142.358 211.644 142.63C209.815 142.755 208.357 142.854 207.338 142.922C206.852 142.948 206.47 142.975 206.188 142.99C206.068 142.995 205.968 143.001 205.89 143.001C205.822 143.001 205.791 143.001 205.791 142.995C205.791 142.99 205.822 142.985 205.89 142.975C205.968 142.964 206.068 142.954 206.183 142.943C206.46 142.917 206.841 142.88 207.327 142.833C208.346 142.745 209.805 142.624 211.629 142.468C215.329 142.175 220.535 141.757 226.624 141.271L226.739 141.26L226.76 141.375C227.345 144.846 227.988 148.656 228.657 152.633C230.115 161.43 231.438 169.395 232.394 175.181C232.859 178.056 233.236 180.387 233.497 182.017C233.617 182.812 233.716 183.434 233.784 183.878C233.81 184.082 233.837 184.239 233.852 184.364C233.863 184.49 233.868 184.547 233.863 184.547Z" fill="#455A64"/>
<path d="M230.157 137.68C230.204 137.743 229.295 138.527 228.255 139.583C227.215 140.633 226.446 141.563 226.384 141.511C226.326 141.469 227.006 140.455 228.061 139.389C229.112 138.323 230.116 137.623 230.157 137.68Z" fill="#455A64"/>
<path d="M198.119 79.9937C198.129 79.9937 198.15 80.0512 198.181 80.1661C198.218 80.2811 198.249 80.4536 198.281 80.6784C198.333 81.1278 198.307 81.8073 198.025 82.5808C197.742 83.3439 197.194 84.2011 196.305 84.844C195.422 85.4869 194.199 85.8214 192.95 85.7377C191.695 85.6541 190.545 85.1837 189.693 84.5199C188.831 83.8614 188.24 83.0669 187.843 82.3613C187.451 81.6453 187.242 81.0233 187.138 80.5843C187.085 80.3648 187.049 80.1923 187.033 80.0773C187.017 79.9623 187.012 79.8996 187.023 79.8944C187.08 79.8735 187.211 80.8926 188.016 82.2673C188.423 82.9415 189.014 83.6993 189.85 84.3213C190.676 84.9485 191.779 85.3875 192.976 85.4712C194.167 85.5496 195.322 85.236 196.169 84.6401C197.021 84.0495 197.565 83.2394 197.857 82.5129C198.145 81.7812 198.208 81.1278 198.187 80.6888C198.16 80.2445 198.093 80.0041 198.119 79.9937Z" fill="#263238"/>
<path d="M205.492 102.818C205.471 102.818 205.435 102.625 205.383 102.275C205.325 101.862 205.252 101.365 205.173 100.78C205.001 99.4472 204.776 97.7328 204.531 95.8408C204.295 93.9069 204.107 92.156 203.992 90.8859C203.935 90.2483 203.893 89.7361 203.872 89.3807C203.851 89.0253 203.846 88.8267 203.867 88.8267C203.888 88.8267 203.924 89.02 203.977 89.3702C204.034 89.7831 204.102 90.2797 204.18 90.865C204.348 92.1978 204.562 93.9122 204.797 95.8094C205.032 97.7381 205.241 99.489 205.362 100.759C205.424 101.391 205.466 101.909 205.487 102.264C205.508 102.62 205.508 102.818 205.492 102.818Z" fill="#263238"/>
<path d="M44.7976 191.421V191.963H42.5804V193.682H44.3805V194.224H42.5804V196.521H41.9146V191.421H44.7976Z" fill="#263238"/>
<path d="M45.8202 191.86C45.6934 191.86 45.5861 191.816 45.4983 191.729C45.4105 191.641 45.3666 191.533 45.3666 191.407C45.3666 191.28 45.4105 191.172 45.4983 191.085C45.5861 190.997 45.6934 190.953 45.8202 190.953C45.9422 190.953 46.0446 190.997 46.1276 191.085C46.2154 191.172 46.2593 191.28 46.2593 191.407C46.2593 191.533 46.2154 191.641 46.1276 191.729C46.0446 191.816 45.9422 191.86 45.8202 191.86ZM46.1422 192.511V196.521H45.4763V192.511H46.1422Z" fill="#263238"/>
<path d="M47.8175 193.163C47.9346 192.933 48.1004 192.755 48.3151 192.629C48.5346 192.502 48.8005 192.438 49.1127 192.438V193.126H48.937C48.1907 193.126 47.8175 193.531 47.8175 194.341V196.521H47.1516V192.511H47.8175V193.163Z" fill="#263238"/>
<path d="M51.1754 196.587C50.8681 196.587 50.5925 196.536 50.3486 196.434C50.1047 196.326 49.912 196.18 49.7705 195.994C49.629 195.804 49.551 195.587 49.5364 195.343H50.2242C50.2437 195.543 50.3364 195.707 50.5022 195.834C50.673 195.96 50.8949 196.024 51.1681 196.024C51.4218 196.024 51.6218 195.968 51.7681 195.855C51.9145 195.743 51.9877 195.602 51.9877 195.431C51.9877 195.255 51.9096 195.126 51.7535 195.043C51.5974 194.955 51.3559 194.87 51.0291 194.787C50.7315 194.709 50.4876 194.631 50.2974 194.553C50.112 194.47 49.951 194.351 49.8144 194.194C49.6827 194.033 49.6169 193.824 49.6169 193.565C49.6169 193.36 49.6778 193.172 49.7998 193.002C49.9217 192.831 50.0949 192.697 50.3193 192.599C50.5437 192.497 50.7998 192.446 51.0876 192.446C51.5315 192.446 51.8901 192.558 52.1633 192.782C52.4364 193.007 52.5828 193.314 52.6023 193.704H51.9364C51.9218 193.494 51.8364 193.326 51.6803 193.199C51.5291 193.072 51.3242 193.009 51.0657 193.009C50.8266 193.009 50.6364 193.06 50.4949 193.163C50.3535 193.265 50.2827 193.399 50.2827 193.565C50.2827 193.697 50.3242 193.807 50.4071 193.894C50.4949 193.977 50.6022 194.046 50.7291 194.099C50.8608 194.148 51.0413 194.204 51.2706 194.268C51.5584 194.346 51.7925 194.424 51.973 194.502C52.1535 194.575 52.3072 194.687 52.434 194.838C52.5657 194.99 52.634 195.187 52.6389 195.431C52.6389 195.651 52.5779 195.848 52.456 196.024C52.334 196.199 52.1608 196.338 51.9364 196.441C51.7169 196.538 51.4632 196.587 51.1754 196.587Z" fill="#263238"/>
<path d="M54.2657 193.06V195.424C54.2657 195.619 54.3071 195.758 54.39 195.841C54.473 195.919 54.6169 195.958 54.8218 195.958H55.312V196.521H54.712C54.3413 196.521 54.0632 196.436 53.8778 196.265C53.6925 196.094 53.5998 195.814 53.5998 195.424V193.06H53.0803V192.511H53.5998V191.502H54.2657V192.511H55.312V193.06H54.2657Z" fill="#263238"/>
<path d="M59.4066 191.421C59.9627 191.421 60.4432 191.526 60.8481 191.736C61.2579 191.941 61.5701 192.236 61.7847 192.621C62.0042 193.007 62.114 193.46 62.114 193.982C62.114 194.504 62.0042 194.958 61.7847 195.343C61.5701 195.724 61.2579 196.016 60.8481 196.221C60.4432 196.421 59.9627 196.521 59.4066 196.521H57.8187V191.421H59.4066ZM59.4066 195.973C60.0651 195.973 60.5676 195.799 60.9139 195.453C61.2603 195.102 61.4335 194.612 61.4335 193.982C61.4335 193.348 61.2579 192.853 60.9066 192.497C60.5603 192.141 60.0603 191.963 59.4066 191.963H58.4846V195.973H59.4066Z" fill="#263238"/>
<path d="M66.5255 194.363C66.5255 194.49 66.5182 194.624 66.5035 194.765H63.2986C63.323 195.16 63.4571 195.47 63.701 195.694C63.9498 195.914 64.2498 196.024 64.601 196.024C64.8888 196.024 65.1279 195.958 65.3181 195.826C65.5133 195.69 65.6498 195.509 65.7279 195.285H66.445C66.3377 195.67 66.123 195.985 65.8011 196.229C65.4791 196.468 65.0791 196.587 64.601 196.587C64.2205 196.587 63.8791 196.502 63.5766 196.331C63.279 196.16 63.0449 195.919 62.8742 195.607C62.7034 195.29 62.6181 194.924 62.6181 194.509C62.6181 194.094 62.701 193.731 62.8668 193.419C63.0327 193.107 63.2644 192.868 63.562 192.702C63.8644 192.531 64.2108 192.446 64.601 192.446C64.9815 192.446 65.3181 192.529 65.6108 192.694C65.9035 192.86 66.1279 193.09 66.284 193.382C66.445 193.67 66.5255 193.997 66.5255 194.363ZM65.8377 194.224C65.8377 193.97 65.7816 193.753 65.6694 193.572C65.5572 193.387 65.4035 193.248 65.2084 193.155C65.0181 193.058 64.8059 193.009 64.5718 193.009C64.2352 193.009 63.9474 193.116 63.7083 193.331C63.4742 193.546 63.34 193.843 63.3059 194.224H65.8377Z" fill="#263238"/>
<path d="M67.9448 191.107V196.521H67.279V191.107H67.9448Z" fill="#263238"/>
<path d="M69.2982 191.86C69.1714 191.86 69.064 191.816 68.9762 191.729C68.8884 191.641 68.8445 191.533 68.8445 191.407C68.8445 191.28 68.8884 191.172 68.9762 191.085C69.064 190.997 69.1714 190.953 69.2982 190.953C69.4201 190.953 69.5226 190.997 69.6055 191.085C69.6933 191.172 69.7372 191.28 69.7372 191.407C69.7372 191.533 69.6933 191.641 69.6055 191.729C69.5226 191.816 69.4201 191.86 69.2982 191.86ZM69.6201 192.511V196.521H68.9543V192.511H69.6201Z" fill="#263238"/>
<path d="M72.1223 195.907L73.3662 192.511H74.076L72.5028 196.521H71.7272L70.1539 192.511H70.871L72.1223 195.907Z" fill="#263238"/>
<path d="M78.2644 194.363C78.2644 194.49 78.2571 194.624 78.2425 194.765H75.0375C75.0619 195.16 75.1961 195.47 75.44 195.694C75.6888 195.914 75.9888 196.024 76.34 196.024C76.6278 196.024 76.8668 195.958 77.0571 195.826C77.2522 195.69 77.3888 195.509 77.4669 195.285H78.184C78.0766 195.67 77.862 195.985 77.54 196.229C77.2181 196.468 76.8181 196.587 76.34 196.587C75.9595 196.587 75.618 196.502 75.3156 196.331C75.018 196.16 74.7839 195.919 74.6131 195.607C74.4424 195.29 74.357 194.924 74.357 194.509C74.357 194.094 74.4399 193.731 74.6058 193.419C74.7717 193.107 75.0034 192.868 75.3009 192.702C75.6034 192.531 75.9497 192.446 76.34 192.446C76.7205 192.446 77.0571 192.529 77.3498 192.694C77.6425 192.86 77.8669 193.09 78.023 193.382C78.184 193.67 78.2644 193.997 78.2644 194.363ZM77.5766 194.224C77.5766 193.97 77.5205 193.753 77.4083 193.572C77.2961 193.387 77.1425 193.248 76.9473 193.155C76.7571 193.058 76.5449 193.009 76.3107 193.009C75.9741 193.009 75.6863 193.116 75.4473 193.331C75.2131 193.546 75.079 193.843 75.0448 194.224H77.5766Z" fill="#263238"/>
<path d="M79.6838 193.163C79.8009 192.933 79.9668 192.755 80.1814 192.629C80.4009 192.502 80.6668 192.438 80.979 192.438V193.126H80.8034C80.057 193.126 79.6838 193.531 79.6838 194.341V196.521H79.0179V192.511H79.6838V193.163Z" fill="#263238"/>
<path d="M85.0759 192.511L82.6612 198.409H81.9734L82.7637 196.477L81.1466 192.511H81.8856L83.1442 195.76L84.3881 192.511H85.0759Z" fill="#263238"/>
</svg>
