<svg width="23" height="24" viewBox="0 0 23 24" fill="none" xmlns="http://www.w3.org/2000/svg">
<path d="M8.02666 0.946729C5.26545 1.91688 2.87738 4.00645 1.53409 6.6184C1.08633 7.51393 0.713189 8.48408 0.563934 9.52886C0.0415434 11.9916 0.41468 14.6781 1.53409 16.917C2.28036 18.4095 3.32514 19.6782 4.66843 20.723C5.86247 21.6931 7.28039 22.4394 8.84756 22.8125C10.7879 23.3349 12.8028 23.3349 14.6685 22.8871C16.3849 22.514 18.0267 21.6931 19.37 20.4244C20.7879 19.1558 21.7581 17.514 22.2805 15.6483C22.8775 13.708 22.9521 11.6184 22.579 9.60349C18.9969 9.60349 15.4148 9.60349 11.8326 9.60349C11.8326 11.096 11.8326 12.5886 11.8326 14.0811C13.9222 14.0811 16.0118 14.0811 18.0267 14.0811C17.8028 15.499 16.9073 16.8423 15.7133 17.5886C14.967 18.111 14.0715 18.4095 13.1759 18.5588C12.2804 18.708 11.3103 18.708 10.4147 18.5588C9.5192 18.4095 8.62368 17.9617 7.8774 17.4394C6.68337 16.6185 5.71321 15.3498 5.26545 13.9319C4.74306 12.514 4.74306 10.9468 5.26545 9.45424C5.63859 8.48408 6.16098 7.51393 6.90725 6.76765C7.80278 5.7975 8.99681 5.12586 10.3401 4.90197C11.4595 4.67809 12.5789 4.67809 13.6983 5.05123C14.5939 5.34974 15.4894 5.87213 16.161 6.46915C16.8327 5.7975 17.5789 5.05123 18.2506 4.37958C18.6237 4.00645 18.9969 3.63331 19.37 3.26017C18.3252 2.29002 17.0566 1.46912 15.7133 0.946729C13.2506 0.12583 10.4894 0.12583 8.02666 0.946729Z" fill="white"/>
<path d="M8.02626 0.946739C10.489 0.125839 13.2502 0.125839 15.7129 1.02137C17.0562 1.54376 18.3248 2.29003 19.3696 3.33481C18.9965 3.70795 18.6233 4.08108 18.2502 4.45422C17.5786 5.12586 16.8323 5.87214 16.1606 6.54378C15.489 5.87214 14.5935 5.34975 13.6979 5.12587C12.6532 4.82736 11.4591 4.75273 10.3397 4.97661C9.07104 5.27512 7.87701 5.94676 6.90685 6.84229C6.16058 7.58856 5.56356 8.55872 5.26505 9.52887C3.99639 8.55872 2.80235 7.58856 1.53369 6.61841C2.87698 4.00646 5.26505 1.91689 8.02626 0.946739Z" fill="#EA4335"/>
<path d="M0.563446 9.52887C0.787328 8.55872 1.08584 7.58856 1.5336 6.61841C2.80226 7.58856 3.9963 8.55872 5.26496 9.52887C4.74257 10.9468 4.74257 12.514 5.26496 14.0065C3.9963 14.9767 2.80226 15.9468 1.5336 16.917C0.414192 14.6035 0.0410551 11.9916 0.563446 9.52887Z" fill="#FBBC05"/>
<path d="M11.7573 9.60352C15.3394 9.60352 18.9215 9.60352 22.5036 9.60352C22.8768 11.6185 22.8022 13.708 22.2051 15.6483C21.6827 17.4394 20.7126 19.0812 19.2947 20.4245C18.1006 19.4543 16.9066 18.5588 15.6379 17.5886C16.832 16.7677 17.6529 15.4991 17.9514 14.0812C15.8618 14.0812 13.7723 14.0812 11.7573 14.0812C11.7573 12.5886 11.7573 11.0961 11.7573 9.60352Z" fill="#4285F4"/>
<path d="M1.53369 16.9171C2.80235 15.9469 3.99639 14.9767 5.26505 14.0066C5.71282 15.4245 6.68297 16.6932 7.87701 17.5141C8.62328 18.0365 9.51881 18.4096 10.4143 18.6335C11.3099 18.7827 12.2054 18.7827 13.1755 18.6335C14.0711 18.4842 14.9666 18.1111 15.7129 17.6633C16.9069 18.6335 18.1009 19.529 19.3696 20.4992C18.0263 21.6932 16.4591 22.5141 14.6681 22.9619C12.7278 23.4096 10.7128 23.4096 8.84716 22.8872C7.35462 22.5141 5.9367 21.7678 4.66804 20.7977C3.39937 19.6783 2.27996 18.335 1.53369 16.9171Z" fill="#34A853"/>
</svg>
