<svg width="12" height="15" viewBox="0 0 12 15" fill="none" xmlns="http://www.w3.org/2000/svg">
<path d="M3.87012 13.6467C4.22223 14.4428 5.0191 14.9999 5.94406 14.9999C6.86903 14.9999 7.66587 14.4428 8.01801 13.6467H3.87012Z" fill="#A079EC"/>
<path d="M5.94416 1.4331C6.55454 1.4331 7.14062 1.5408 7.68451 1.73797V1.67098C7.68451 0.749595 6.93491 0 6.01356 0H5.87508C4.9537 0 4.2041 0.749595 4.2041 1.67098V1.73712C4.74769 1.54054 5.3336 1.4331 5.94416 1.4331V1.4331Z" fill="#A079EC"/>
<path d="M11.4368 12.7665H0.451785C0.243962 12.7665 0.0535994 12.6263 0.0103738 12.423C-0.0324115 12.2218 0.0593217 12.0231 0.245429 11.9371C0.289594 11.9085 0.622017 11.676 0.954821 10.9728C1.56605 9.68128 1.69435 7.86202 1.69435 6.56326C1.69435 4.21989 3.60082 2.31348 5.94416 2.31348C8.28195 2.31348 10.1849 4.21071 10.1939 6.54638C10.1941 6.55199 10.1943 6.55762 10.1943 6.56326C10.1943 7.86202 10.3226 9.68128 10.9338 10.9728C11.2666 11.676 11.599 11.9085 11.6432 11.9371C11.8293 12.0231 11.9211 12.2217 11.8782 12.423C11.835 12.6263 11.6447 12.7665 11.4368 12.7665ZM11.6481 11.9402H11.6484H11.6481Z" fill="#A079EC"/>
</svg>
