<svg width="16" height="16" viewBox="0 0 16 16" fill="none" xmlns="http://www.w3.org/2000/svg">
<path fill-rule="evenodd" clip-rule="evenodd" d="M5.5248 0.786417C7.15285 0.404528 8.84719 0.404528 10.4752 0.786416C12.8264 1.33791 14.6621 3.17369 15.2136 5.52481C15.5955 7.15285 15.5955 8.84719 15.2136 10.4752C14.6621 12.8264 12.8264 14.6621 10.4752 15.2136C8.84719 15.5955 7.15285 15.5955 5.52481 15.2136C3.17369 14.6621 1.33792 12.8264 0.786417 10.4752C0.404528 8.84719 0.404528 7.15285 0.786417 5.5248C1.33792 3.17368 3.17369 1.33791 5.5248 0.786417ZM8.22987 5.60678C8.22987 5.33064 8.00601 5.10678 7.72987 5.10678C7.45372 5.10678 7.22987 5.33064 7.22987 5.60678V8.55355C7.22987 8.72452 7.31722 8.88363 7.46146 8.9754L9.72592 10.4162C9.9589 10.5644 10.2679 10.4957 10.4162 10.2628C10.5644 10.0298 10.4957 9.72074 10.2627 9.5725L8.22987 8.27906V5.60678Z" fill="#4CCD7F"/>
</svg>
