<svg width="15" height="23" viewBox="0 0 15 23" fill="none" xmlns="http://www.w3.org/2000/svg">
<path fill-rule="evenodd" clip-rule="evenodd" d="M7.61991 21.8277C10.3192 21.8748 12.3529 19.8102 13.721 15.6338C13.5929 12.878 13.5191 11.3681 13.4998 11.1041C13.4707 10.7081 13.3627 9.23184 13.9622 6.35028C14.5617 3.46871 14.5908 2.96944 14.6873 2.205C14.7838 1.44056 14.6873 0.597834 13.4998 0.294225C12.3122 -0.00938413 12.088 0.536551 11.8842 1.84382C11.6804 3.15109 10.9029 6.01635 10.7388 6.88798C10.5747 7.75961 10.3221 8.80829 10.0638 8.791C9.80555 8.7737 9.63198 8.02209 9.33461 6.86347C9.03725 5.70484 8.56593 3.53634 8.32827 2.44478C8.0906 1.35322 7.56632 0.0267949 5.90357 0.421017C4.24082 0.81524 5.14418 1.81215 5.31726 2.57764C5.43265 3.08796 5.83247 5.02268 6.51671 8.3818C5.98974 7.75468 5.44937 7.50789 4.89561 7.64143C4.34185 7.77497 3.9858 8.47338 3.82748 9.73667C3.44055 8.92603 2.80964 8.56357 1.93474 8.64928C0.622394 8.77786 0.603425 9.85354 0.614043 10.5304C0.683577 14.9633 0.346227 17.6621 2.13199 19.7705C3.17922 21.0069 4.12596 21.4874 5.17535 21.6812C5.9154 21.8178 6.70651 21.8118 7.61991 21.8277Z" fill="#CC9200"/>
<path fill-rule="evenodd" clip-rule="evenodd" d="M6.94396 22.2961C10.9935 22.2961 12.7899 20.0769 13.4684 17.8248C13.9207 16.3233 13.7999 14.8063 13.1058 13.2736C12.9907 12.0225 12.9212 11.2651 12.8973 11.0015C12.8613 10.6061 12.7276 9.13193 13.2767 6.24035C13.8258 3.34876 13.9382 2.84669 14.0213 2.08068C14.1045 1.31467 13.954 0.463466 13.1058 0.243302C12.2575 0.0231372 11.3013 0.460216 11.1203 1.77084C10.9394 3.08147 10.212 5.95986 10.0632 6.83422C9.91429 7.70858 9.68002 8.76151 9.42149 8.74873C9.16295 8.73595 8.97628 7.98748 8.65874 6.83422C8.3412 5.68096 7.83212 3.52102 7.57543 2.43377C7.31875 1.34652 6.79759 0.0568543 5.479 0.404606C4.1604 0.752357 4.38079 1.85681 4.56721 2.61916C4.69148 3.12739 5.06197 4.80483 5.67868 7.65149C5.26604 7.45527 4.78404 7.42874 4.2327 7.57193C3.68135 7.71512 3.31756 8.15859 3.14132 8.90236C2.81229 8.45354 2.21115 8.27961 1.33788 8.38059C0.0279744 8.53205 -0.0189285 9.97621 0.00350146 10.6528C0.150388 15.0838 -0.139809 17.7881 1.68248 19.865C3.50477 21.9419 4.73503 22.2961 6.94396 22.2961Z" fill="#FDCA47"/>
<path fill-rule="evenodd" clip-rule="evenodd" d="M2.00293 13.2366C3.24151 13.2366 3.62957 12.3559 3.62957 11.8066C3.62957 11.2572 3.59602 10.0915 3.49563 9.62603C3.39524 9.16058 3.29381 8.87056 3.14288 8.7468C3.04226 8.6643 2.93398 8.62305 2.81804 8.62305C2.94988 8.99733 3.05816 9.45934 3.14288 10.0091C3.26996 10.8337 3.24235 11.4056 3.14288 11.8791C3.04341 12.3527 2.75532 12.9719 2.00293 13.2366Z" fill="#CC9200"/>
<path fill-rule="evenodd" clip-rule="evenodd" d="M6.67367 9.3707C6.53268 8.32509 6.29064 7.97148 6.13971 7.84773C6.03909 7.76522 5.88559 7.69806 5.6792 7.64624C5.84263 7.88964 5.94745 8.07863 5.99366 8.2132C6.08858 8.48963 6.1951 8.96014 6.2317 9.30638C6.3192 10.1341 6.33795 10.421 6.33795 11.0142C6.33795 11.2903 6.29399 11.6436 6.33795 11.6714C6.46133 11.7492 6.56183 11.6714 6.72788 11.6714C6.85059 11.6714 6.81466 10.4163 6.67367 9.3707Z" fill="#CC9200"/>
<path fill-rule="evenodd" clip-rule="evenodd" d="M1.89893 20.0942C3.39256 21.3645 5.17884 21.9203 7.25777 21.7617C10.3762 21.5238 11.7246 20.7528 12.8268 18.4684C13.9291 16.1841 12.7987 13.5474 12.4313 13.2586C12.0639 12.9698 10.339 11.9704 9.71687 11.9018C9.09477 11.8331 7.94973 11.9018 6.97314 11.9018C5.99655 11.9018 5.14138 11.7174 4.87054 11.9018C4.59969 12.0861 4.45991 13.7789 5.38474 14.2975C6.30956 14.8162 8.04164 14.6759 8.42237 14.7395C8.79927 14.8025 9.34104 14.9425 9.40734 15.5501C9.45625 15.9982 9.48071 16.3522 9.48071 16.6121C9.23835 15.7657 8.88557 15.2947 8.42237 15.199C7.72756 15.0555 6.91285 15.1177 6.21315 15.0696C5.51345 15.0214 4.58927 14.4903 4.32591 13.7424C4.06256 12.9946 3.9303 12.0127 4.68704 11.4666C5.08143 11.182 5.65141 11.4666 6.75006 11.4666C7.84871 11.4666 9.36646 11.4183 9.9104 11.5481C10.4543 11.6778 12.3146 12.7128 12.8268 12.9857C13.339 13.2586 13.6619 14.5435 13.7564 15.5501C13.8508 16.5566 14.0877 20.2725 9.71687 21.9201C8.31192 22.4497 6.0102 22.3643 4.68704 22.0493C3.83665 21.8469 2.90728 21.1952 1.89893 20.0942Z" fill="#CC9200"/>
<path fill-rule="evenodd" clip-rule="evenodd" d="M3.4578 12.2875C3.55946 12.6811 3.69945 12.9506 3.87776 13.096C4.05608 13.2414 4.23285 13.314 4.40808 13.314V12.8008C4.1652 12.6868 4.00172 12.5965 3.91763 12.53C3.72709 12.3792 3.65582 11.9827 3.57971 11.9383C3.45322 11.8644 3.41258 11.9808 3.4578 12.2875Z" fill="#CC9200"/>
<path fill-rule="evenodd" clip-rule="evenodd" d="M4.10059 17.4559C4.19704 16.4954 4.60681 15.7821 5.32988 15.3159C6.05295 14.8497 6.81626 14.6499 7.6198 14.7163V15.1084C6.608 15.197 5.84469 15.4151 5.32988 15.7627C4.81507 16.1103 4.4053 16.6747 4.10059 17.4559Z" fill="#CC9200"/>
</svg>
